<svg xmlns="http://www.w3.org/2000/svg" xmlns:xlink="http://www.w3.org/1999/xlink" width="118.129" height="118.363" viewBox="0 0 118.129 118.363">
  <defs>
    <linearGradient id="linear-gradient" x1="0.5" x2="0.5" y2="1" gradientUnits="objectBoundingBox">
      <stop offset="0" stop-color="#d2345b"/>
      <stop offset="1" stop-color="#fa5d5b"/>
    </linearGradient>
    <linearGradient id="linear-gradient-2" y1="0.5" x2="1" y2="0.5" gradientUnits="objectBoundingBox">
      <stop offset="0" stop-color="#fa3785"/>
      <stop offset="1" stop-color="#fe625d"/>
    </linearGradient>
  </defs>
  <g id="pm_methodology_icon_2" transform="translate(-39.21 -27.121)">
    <g id="Group_6397" data-name="Group 6397" transform="translate(39.211 27.122)">
      <g id="Group_6393" data-name="Group 6393" transform="translate(0)">
        <path id="Path_22057" data-name="Path 22057" d="M8755.578,4007.59V4022l-7.187,1.824a28.216,28.216,0,0,1-1.563,3.8l3.8,6.347-10.189,10.2-6.347-3.8a30.015,30.015,0,0,1-3.806,1.563l-1.825,7.186h-14.407l-1.825-7.186a28.722,28.722,0,0,1-3.8-1.563l-6.349,3.8-10.188-10.2,3.8-6.347a28.763,28.763,0,0,1-1.569-3.806l-7.186-1.823v-2.049l-39.213-35.158a30.866,30.866,0,0,1,20.609-53.854h.205a30.863,30.863,0,0,1,20.332,7.636l5.8,5.077,5.8-5.076a30.944,30.944,0,0,1,41.118,46.255l-.951.85,9.958,9.958-3.8,6.347a27.869,27.869,0,0,1,1.563,3.806Zm-3.812,11.436v-8.481l-6.409-1.605-.3-1.052a24.481,24.481,0,0,0-2.079-5.058l-.529-.961,3.38-5.66-5.981-5.989-5.66,3.386-.955-.529a24.773,24.773,0,0,0-5.058-2.085l-1.059-.3-1.6-6.4h-8.463l-1.612,6.4-1.052.3a24.5,24.5,0,0,0-5.059,2.085l-.96.529-5.66-3.386-5.982,5.982,3.387,5.66-.53.961a24.66,24.66,0,0,0-2.085,5.058l-.3,1.058-6.407,1.605v8.511l6.407,1.611.3,1.052a24.481,24.481,0,0,0,2.084,5.058l.53.96-3.387,5.66,5.982,5.982,5.66-3.38.96.529a24.773,24.773,0,0,0,5.059,2.08l1.052.309,1.612,6.4h8.463l1.611-6.4,1.052-.31a24.8,24.8,0,0,0,5.06-2.079l.959-.529,5.654,3.38,5.988-5.982-3.387-5.66.529-.961a24.781,24.781,0,0,0,2.079-5.058l.3-1.052Zm-12.7-37.056a27.126,27.126,0,1,0-36.053-40.54l-8.311,7.3-8.312-7.3a27.042,27.042,0,0,0-17.825-6.688h-.207a27.061,27.061,0,0,0-18.062,47.208l36.668,32.872v-7.241l7.184-1.824a29.309,29.309,0,0,1,1.57-3.8l-3.8-6.353,10.184-10.189,6.354,3.8a29,29,0,0,1,3.8-1.562l1.823-7.186h14.408l1.824,7.186c.607.195,1.155.407,1.728.638Z" transform="translate(-8637.449 -3930.75)" fill="none"/>
        <path id="Path_22058" data-name="Path 22058" d="M8786.156,4045.068v8.511l-6.409,1.611-.3,1.052a24.726,24.726,0,0,1-2.079,5.058l-.527.961,3.385,5.66-5.988,5.982-5.653-3.38-.961.529a24.706,24.706,0,0,1-5.059,2.079l-1.052.31-1.611,6.4h-8.463l-1.611-6.4-1.052-.31a24.745,24.745,0,0,1-5.059-2.079l-.961-.529-5.66,3.38-5.981-5.982,3.386-5.66-.528-.96a24.377,24.377,0,0,1-2.085-5.058l-.3-1.052-6.408-1.611v-8.511l6.408-1.6.3-1.058a24.446,24.446,0,0,1,2.085-5.059l.528-.961-3.386-5.66,5.981-5.982,5.66,3.386.961-.529a24.43,24.43,0,0,1,5.059-2.085l1.052-.3,1.611-6.4h8.463l1.605,6.4,1.057.3a24.828,24.828,0,0,1,5.06,2.086l.954.529,5.66-3.386,5.981,5.988-3.378,5.66.527.96a24.415,24.415,0,0,1,2.079,5.059l.3,1.052Zm-9.527,4.256a20.969,20.969,0,1,0-20.967,20.969A20.967,20.967,0,0,0,8776.629,4049.324Z" transform="translate(-8671.838 -3965.272)" fill="#dbdbdb"/>
        <path id="Path_22069" data-name="Path 22069" d="M8750.556,3964.422a27.1,27.1,0,0,1-9,20.148l-7.053,6.329c-.572-.231-1.144-.443-1.728-.638l-1.823-7.187h-14.41l-1.824,7.187a29.2,29.2,0,0,0-3.8,1.563l-6.353-3.8-10.184,10.189,3.8,6.353a29.043,29.043,0,0,0-1.569,3.8l-7.186,1.824v7.241l-36.642-32.878a27.06,27.06,0,0,1,18.062-47.208h.207a27.04,27.04,0,0,1,17.826,6.688l8.311,7.3,8.311-7.3a27.182,27.182,0,0,1,45.05,20.391Z" transform="translate(-8639.935 -3933.331)" fill="url(#linear-gradient)"/>
        <path id="Path_22059" data-name="Path 22059" d="M8761.809,4034.51a20.969,20.969,0,1,1-20.97,20.967,20.97,20.97,0,0,1,20.97-20.967Zm17.15,20.963a17.154,17.154,0,1,0,0,.006Z" transform="translate(-8677.98 -3971.428)" fill="#f96c49"/>
        <path id="Path_22063" data-name="Path 22063" d="M8764.268,4040.78a17.157,17.157,0,1,1-17.157,17.155A17.157,17.157,0,0,1,8764.268,4040.78Zm5.715,17.151h3.811a9.532,9.532,0,1,0-9.525,9.533v-3.812a5.721,5.721,0,1,1,5.715-5.721Z" transform="translate(-8680.439 -3973.886)" fill="#dbdbdb"/>
        <path id="Path_22065" data-name="Path 22065" d="M8778.705,4062.853h-3.811a5.721,5.721,0,1,0-5.717,5.721l0,3.812a9.533,9.533,0,1,1,9.525-9.531Z" transform="translate(-8685.352 -3978.802)" fill="url(#linear-gradient-2)"/>
        <path id="Path_22073" data-name="Path 22073" d="M8653.872,3967.862a19.5,19.5,0,0,1,12.5-18.239l-1.354-3.562a23.26,23.26,0,0,0-7.229,39.043l13.795,12.366,2.541-2.839-13.764-12.348A19.45,19.45,0,0,1,8653.872,3967.862Z" transform="translate(-8642.392 -3936.752)" fill="#dbdbdb"/>
        <path id="Path_22085" data-name="Path 22085" d="M8684.974,3947.422l-.075-3.812a22.937,22.937,0,0,0-4.019.432l.736,3.739A19.429,19.429,0,0,1,8684.974,3947.422Z" transform="translate(-8654.476 -3935.792)" fill="#dbdbdb"/>
        <path id="Path_22082" data-name="Path 22082" d="M8770.414,3976.554a3.813,3.813,0,0,1-3.812-3.812h-3.811a7.611,7.611,0,0,0,5.714,7.35v4.086h3.813v-4.086a7.605,7.605,0,0,0-1.9-14.974,3.812,3.812,0,1,1,3.812-3.812h3.813a7.62,7.62,0,0,0-5.722-7.356v-4.08h-3.812v4.08a7.612,7.612,0,0,0,1.908,14.98,3.812,3.812,0,1,1,0,7.624Z" transform="translate(-8686.589 -3938.246)" fill="#fff"/>
        <rect id="Rectangle_2785" data-name="Rectangle 2785" width="3.812" height="3.812" transform="translate(95.263 26.866)" fill="#fff"/>
        <rect id="Rectangle_2786" data-name="Rectangle 2786" width="3.812" height="3.812" transform="translate(68.579 26.866)" fill="#fff"/>
      </g>
    </g>
  </g>
</svg>
