<svg xmlns="http://www.w3.org/2000/svg" xmlns:xlink="http://www.w3.org/1999/xlink" width="117.641" height="124.228" viewBox="0 0 117.641 124.228"><defs><style>.a{fill:#3f3d56;}.b{fill:#6c63ff;}.c{fill:#a0616a;}.d{opacity:0.1;}.e{fill:#2f2e41;}.f{fill:#f2f2f2;}.g{fill:url(#a);}</style><linearGradient id="a" x1="0.5" x2="0.5" y2="1" gradientUnits="objectBoundingBox"><stop offset="0" stop-color="#fd605c"/><stop offset="1" stop-color="#d2345b"/></linearGradient></defs><g transform="translate(-50.226)"><path class="a" d="M374.21,633.1c2.942,5.456,9.185,7.8,9.185,7.8s1.474-6.5-1.468-11.959-9.186-7.8-9.186-7.8S371.268,627.645,374.21,633.1Z" transform="translate(-314.129 -518.399)"/><path class="b" d="M350.377,656.87c5.311,3.2,7.357,9.542,7.357,9.542s-6.566,1.166-11.877-2.029-7.357-9.542-7.357-9.542S345.066,653.674,350.377,656.87Z" transform="translate(-288.274 -543.963)"/><path class="c" d="M764.821,196.159l9.7-1.894s2.367-8.048,5.208-7.1-1.894,8.995-1.894,8.995l-13.492,6.154Z" transform="translate(-613.323 -187.086)"/><path class="c" d="M488.7,259.414l-4.261,5.444s-6.154-.237-4.261,3.077,6.154,1.42,6.391.71,7.1-6.864,7.1-6.864Z" transform="translate(-396.142 -242.294)"/><path class="b" d="M590.847,226.243l3.55-1.894s15.149-1.184,20.83,2.6-23.907,4.261-23.907,4.261Z" transform="translate(-480.89 -215.395)"/><path class="a" d="M617.2,201.68s-1.894-4.5.71-4.971a11.687,11.687,0,0,1,4.5,0l-2.84,2.367Z" transform="translate(-500.5 -194.265)"/><path class="d" d="M617.2,201.68s-1.894-4.5.71-4.971a11.687,11.687,0,0,1,4.5,0l-2.84,2.367Z" transform="translate(-500.5 -194.265)"/><path class="e" d="M523.435,331.887l-6.864-.473,1.183,2.13s-9.468,2.84-6.391,10.888a104,104,0,0,0,7.811,15.622l3.077,5.918s6.391.947,6.628-.947,0-2.84-1.183-3.787a5.8,5.8,0,0,1-1.894-3.787c0-.947.237-1.894-.473-2.367s-.947-1.184-.947-2.6-2.6-6.628-2.6-6.628,8.285-.237,10.888,1.894,11.125,10.178,11.125,10.178a7.171,7.171,0,0,1,1.183,1.657c.473.947.473,1.42,1.42,1.894s.237,2.367,0,2.6-2.6,9.7-2.6,9.7-2.6,4.5.237,4.734,5.444.473,5.681,0a12.871,12.871,0,0,1,.947-1.894c.71-1.184,0-3.787,0-3.787s6.864-8.758,4.734-14.2-6.628-17.753-6.628-17.753l-6.864-2.84-12.545-4.5Z" transform="translate(-419.751 -297.251)"/><path class="e" d="M545.4,471.735s-1.42,5.444-1.894,5.681-5.681,4.734-2.13,5.444,6.154.473,6.864-.237.473-1.42,1.657-1.657,3.314-.947,3.077-2.6-1.42-6.154-2.13-6.628S545.4,471.735,545.4,471.735Z" transform="translate(-442.189 -404.197)"/><path class="e" d="M645.14,523.414a4.048,4.048,0,0,0-.947,4.734c1.183,3.077,2.84,6.391,2.84,6.391s1.894,5.918,4.971,4.971a3.356,3.356,0,0,0,2.177-2.543,6.082,6.082,0,0,0-.86-4.949l-1.79-2.686-1.894-4.971Z" transform="translate(-521.336 -443.804)"/><path class="c" d="M609.566,229.291s-2.84-.237-3.314.473-2.6,10.178,0,11.125,10.415,2.6,11.6,1.42,1.657-11.6,1.657-11.6Z" transform="translate(-491.68 -219.273)"/><path class="d" d="M609.566,229.291s-2.84-.237-3.314.473-2.6,10.178,0,11.125,10.415,2.6,11.6,1.42,1.657-11.6,1.657-11.6Z" transform="translate(-491.68 -219.273)"/><path class="f" d="M554.169,256.307s3.314,3.314,5.444,2.84,7.1-2.6,7.574-3.551,6.391-1.184,6.391-1.184l-6.391,17.753,4.5,14.912s2.6-3.077-4.5-3.314-16.569-3.787-18.226-8.521c0,0-10.415-1.42-10.888-1.657s1.184-1.657,1.184-1.657l6.864-1.894,4.971-6.391Z" transform="translate(-440.543 -238.477)"/><path class="g" d="M547.8,226.064s1.183-1.657,0-1.657a45.6,45.6,0,0,0-5.681.237c-1.183.237-5.681-.947-6.154.473s-.473,10.178.474,10.888,1.42.71.237,2.13-4.024,6.154-3.314,7.811-7.574,2.13-6.391,4.024a3.888,3.888,0,0,0,3.077,1.894s.473-3.787,3.314-1.894,6.628,6.628,9.7,3.551a13.879,13.879,0,0,0,4.5-9.942,33.5,33.5,0,0,0-.473-8.995C546.62,232.218,547.8,226.064,547.8,226.064Z" transform="translate(-432.047 -215.571)"/><path class="g" d="M653.253,233.367s1.894,1.657,0,5.681-6.864,13.492-2.84,19.646,5.681,7.811,4.734,8.995a4.6,4.6,0,0,0-.947,2.6l2.6-.947a29.792,29.792,0,0,1,1.42-5.681c.947-2.367-1.894-9.468-1.894-9.468l.947-9.231s3.787-5.918,4.261-6.154-.947-10.415-.947-10.415-2.367-.71-3.551,0S653.253,233.367,653.253,233.367Z" transform="translate(-525.189 -218.377)"/><path class="g" d="M523.307,228.414h-1.42l-9.7,4.971s-.71-3.077-1.184-2.367-.237,2.6-1.42,3.077-1.894,1.184,0,2.13,2.13.237,2.13,1.894,1.42,1.894,2.6,1.42,1.42-.71,2.6-.237.473,1.184,2.13.473,5.918-.473,5.918-.473Z" transform="translate(-417.965 -218.631)"/><path class="g" d="M691.347,223.83l1.657-.473s4.971.473,6.154.473,2.367-.237,3.077-.237,4.261-.473,4.734-.947,2.6-1.657,2.841-.947,2.84,5.207.473,7.338-2.841,1.184-4.261,2.13-12.782,2.84-13.019,2.6S691.347,223.83,691.347,223.83Z" transform="translate(-557.602 -213.337)"/><circle class="c" cx="7.101" cy="7.101" r="7.101" transform="translate(116.94 5.285)"/><path class="e" d="M621.3,223.479a1.344,1.344,0,0,1,.147.5,1.859,1.859,0,0,0,1.779,1.433,1.111,1.111,0,0,0,.963,1.345,6.123,6.123,0,0,0,1.055-2.066,1.9,1.9,0,0,1,.357-.81,1.626,1.626,0,0,1,1.011-.38,53.142,53.142,0,0,1,5.7-.424,1.415,1.415,0,0,0,.749-.153c.535-.345.357-1.176.019-1.716a5.37,5.37,0,0,0-2.864-2.235,13.556,13.556,0,0,0-2.637-.437,32.521,32.521,0,0,0-3.565-.37,5.835,5.835,0,0,0-3.409.912c-.712.5-1.88,1.907-1.308,2.794.091.142.38.212.5.357.167.2.168.495.358.674C620.47,223.2,621.045,223.1,621.3,223.479Z" transform="translate(-502.485 -210.807)"/><path class="a" d="M626.542,189.414s-8.048,2.84-7.338,6.864,2.84,8.758,7.338,8.521,6.864-5.132,6.864-5.132l-1.183-6.7S627.726,189.414,626.542,189.414Z" transform="translate(-502.501 -188.863)"/><path class="e" d="M646.057,242.769s3.164-3.433,4.757-1.442C650.814,241.327,650.741,241.229,646.057,242.769Z" transform="translate(-523.032 -228.014)"/><path class="e" d="M545.049,553.623c-4.243,0-9.493-1.406-14.609-6.486-12.524-12.438-24.422-13.686-24.541-13.7l.044-.472c.12.011,12.187,1.276,24.831,13.833,6.5,6.452,13.2,6.847,17.683,6.042a22.1,22.1,0,0,0,8.284-3.339l.28.382a22.591,22.591,0,0,1-8.462,3.419A19.761,19.761,0,0,1,545.049,553.623Z" transform="translate(-416.05 -451.097)"/><circle class="e" cx="2.84" cy="2.84" r="2.84" transform="translate(93.388 86.592)"/><circle class="e" cx="2.84" cy="2.84" r="2.84" transform="translate(113.507 99.848)"/><path class="a" d="M475.987,581.008q-8.634-1.352-16.6-2.3l2.046-4.092c-.71-.237-3.787,2.13-3.787,2.13l2.6-11.835c-3.551.473-5.208,12.545-5.208,12.545l-4.024-4.024L453,577.989a366.842,366.842,0,0,0-42.078-2.119l1.751-3.5c-.71-.237-3.787,2.13-3.787,2.13l2.6-11.835c-3.551.473-5.207,12.545-5.207,12.545l-4.024-4.024,2.1,4.825a236.209,236.209,0,0,0-24.149,1.945c1.747-5.443,7.849-10.676,7.849-10.676-4.692,1.46-7.132,3.838-8.4,6.042a95.05,95.05,0,0,1,5.082-32.907s-9.468,21.3-8.048,35.505l.18,2.523a97.023,97.023,0,0,0-12.37,2.566Z" transform="translate(-308.12 -456.78)"/></g></svg>