<svg xmlns="http://www.w3.org/2000/svg" xmlns:xlink="http://www.w3.org/1999/xlink" width="192.533" height="192.531" viewBox="0 0 192.533 192.531">
  <defs>
    <linearGradient id="linear-gradient" x1="0.5" x2="0.5" y2="1" gradientUnits="objectBoundingBox">
      <stop offset="0" stop-color="#d1335a"/>
      <stop offset="1" stop-color="#fa5e5a"/>
    </linearGradient>
  </defs>
  <g id="culture_icon_1" transform="translate(-4468 2305.414)">
    <g id="Group_12659" data-name="Group 12659" transform="translate(4468 -2305.413)">
      <rect id="Icon_bg" data-name="Icon bg" width="136.141" height="136.141" rx="15" transform="translate(0 96.267) rotate(-45)" fill="url(#linear-gradient)"/>
    </g>
    <g id="Group_12660" data-name="Group 12660" transform="translate(4514 -2258.7)">
      <path id="Path_22283" data-name="Path 22283" d="M60.6,83.6H39.4a1.538,1.538,0,0,0-1.5,1.5v5a1.538,1.538,0,0,0,1.5,1.5h4.1a6.543,6.543,0,0,0,6.4,5.6,6.392,6.392,0,0,0,6.4-5.6h4.1a1.538,1.538,0,0,0,1.5-1.5v-5A1.266,1.266,0,0,0,60.6,83.6Z" fill="#fff"/>
      <path id="Path_22284" data-name="Path 22284" d="M50,19.7A3.691,3.691,0,0,0,53.7,16V6.4A3.691,3.691,0,0,0,50,2.7a3.63,3.63,0,0,0-3.7,3.7V16A3.757,3.757,0,0,0,50,19.7Z" fill="#fff"/>
      <path id="Path_22285" data-name="Path 22285" d="M28.4,23.5l-6.8-6.8a3.677,3.677,0,0,0-5.2,5.2l6.8,6.8a3.623,3.623,0,0,0,5.2,0A3.744,3.744,0,0,0,28.4,23.5Z" fill="#fff"/>
      <path id="Path_22286" data-name="Path 22286" d="M15.8,46.6H6.2a3.691,3.691,0,0,0-3.7,3.7A3.63,3.63,0,0,0,6.2,54h9.6a3.7,3.7,0,0,0,0-7.4Z" fill="#fff"/>
      <path id="Path_22287" data-name="Path 22287" d="M93.8,46.6H84.2a3.691,3.691,0,0,0-3.7,3.7A3.63,3.63,0,0,0,84.2,54h9.6a3.691,3.691,0,0,0,3.7-3.7A3.63,3.63,0,0,0,93.8,46.6Z" fill="#fff"/>
      <path id="Path_22288" data-name="Path 22288" d="M83.6,16.7a3.744,3.744,0,0,0-5.2,0l-6.8,6.8a3.744,3.744,0,0,0,0,5.2,3.631,3.631,0,0,0,2.6,1.1,3.81,3.81,0,0,0,2.6-1.1l6.8-6.8A3.744,3.744,0,0,0,83.6,16.7Z" fill="#fff"/>
      <path id="Path_22289" data-name="Path 22289" d="M44.3,27.3a23.389,23.389,0,0,0-17.2,17A23.645,23.645,0,0,0,35.6,69a6.468,6.468,0,0,1,2.3,5.1v3.4A2.051,2.051,0,0,0,40,79.6H60a2.051,2.051,0,0,0,2.1-2.1V73.9A6.211,6.211,0,0,1,64.4,69,23.628,23.628,0,0,0,44.3,27.3ZM60,47.2,49,59a2.672,2.672,0,0,1-4,0l-5.8-6.2a2.759,2.759,0,1,1,4-3.8L47,53.1l9-9.7a2.717,2.717,0,0,1,3.9-.1A2.909,2.909,0,0,1,60,47.2Z" fill="#fff"/>
    </g>
  </g>
</svg>
