<svg xmlns="http://www.w3.org/2000/svg" xmlns:xlink="http://www.w3.org/1999/xlink" width="164.585" height="164.586" viewBox="0 0 164.585 164.586">
  <defs>
    <linearGradient id="linear-gradient" x1="0.5" x2="0.5" y2="1" gradientUnits="objectBoundingBox">
      <stop offset="0" stop-color="#d1335b"/>
      <stop offset="1" stop-color="#fb5f5b"/>
    </linearGradient>
  </defs>
  <g id="service_pm_icon_revenuegeneration" transform="translate(-655.912 15959.586)">
    <rect id="Icon_bg" data-name="Icon bg" width="116.379" height="116.379" rx="15" transform="translate(655.912 -15877.293) rotate(-45)" fill="url(#linear-gradient)"/>
    <path id="Path_4124" data-name="Path 4124" d="M7536.384,2855.062l11.269,9.927c-.745,1.994-1.569,3.893-2.5,5.826a45.081,45.081,0,0,1-10.941-2.9c.157-2.081.425-4.231.762-6.3a38.692,38.692,0,0,1-6.467-3.736c-1.621,1.318-3.312,2.6-5.062,3.789a43.517,43.517,0,0,1-7.985-7.984q1.82-2.6,3.8-5.072a40,40,0,0,1-3.737-6.459c-2.081.33-4.223.607-6.312.755a45.072,45.072,0,0,1-2.9-10.941c1.933-.919,3.823-1.734,5.816-2.489a39.475,39.475,0,0,1,0-7.438c-2-.754-3.894-1.578-5.827-2.5a44.724,44.724,0,0,1,2.9-10.941c2.08.147,4.222.425,6.3.754a38.66,38.66,0,0,1,3.735-6.468c-1.317-1.621-2.6-3.3-3.788-5.062a44.053,44.053,0,0,1,7.975-7.984c1.735,1.213,3.469,2.479,5.081,3.8a38.973,38.973,0,0,1,6.46-3.728c-.339-2.081-.607-4.231-.763-6.312a45.062,45.062,0,0,1,10.94-2.913c.918,1.933,1.734,3.823,2.5,5.817a40.217,40.217,0,0,1,7.438,0c.754-1.994,1.579-3.892,2.5-5.825a45.13,45.13,0,0,1,10.941,2.913c-.147,2.081-.425,4.213-.763,6.294a39.256,39.256,0,0,1,6.467,3.737c1.622-1.309,3.32-2.6,5.072-3.789a44.027,44.027,0,0,1,7.976,7.984q-1.813,2.6-3.8,5.08a39.2,39.2,0,0,1,3.738,6.459c2.078-.338,4.22-.607,6.3-.763a44.775,44.775,0,0,1,2.913,10.941c-1.934.919-3.825,1.734-5.818,2.488a38.35,38.35,0,0,1,.1,5.835h-18.059a20.869,20.869,0,0,0,.1-2.106,21.465,21.465,0,1,0-16.688,20.859v8.452Zm63.052,5.2v-25.948h-36.281v25.948h-13.092l31.21,26.615,31.209-26.615Z" transform="translate(-6814.733 -18709.703)" fill="#fff"/>
  </g>
</svg>
