<svg xmlns="http://www.w3.org/2000/svg" xmlns:xlink="http://www.w3.org/1999/xlink" width="90.505" height="62.688" viewBox="0 0 90.505 62.688"><defs><style>.a{fill:#3f3d56;}.b{fill:#dd425b;}.c{fill:#2f2e41;}.d{fill:#ffb8b8;}.e{fill:url(#a);}.f{fill:#575a88;}</style><linearGradient id="a" x1="0.5" x2="0.5" y2="1" gradientUnits="objectBoundingBox"><stop offset="0" stop-color="#ea505b"/><stop offset="1" stop-color="#ce335b"/></linearGradient></defs><g transform="translate(-7.018)"><rect class="a" width="89.52" height="0.197" transform="translate(7.018 62.491)"/><rect class="b" width="7.432" height="1.457" transform="translate(49.483 17.202)"/><rect class="b" width="7.432" height="1.457" transform="translate(43.456 23.229)"/><rect class="a" width="3.74" height="1.457" transform="translate(57.255 34.154)"/><rect class="a" width="3.74" height="1.457" transform="translate(70.127 34.154)"/><rect class="a" width="3.74" height="1.457" transform="translate(76.879 34.154)"/><rect class="a" width="3.74" height="1.457" transform="translate(73.479 45.229)"/><rect class="a" width="3.74" height="1.457" transform="translate(86.982 45.229)"/><rect class="a" width="3.74" height="1.457" transform="translate(83.63 34.154)"/><rect class="a" width="3.74" height="1.457" transform="translate(90.382 34.154)"/><path class="a" d="M539.59,209.543h-44.4v-6.266h.1v6.169h44.3Z" transform="translate(-442.068 -183.258)"/><path class="a" d="M647.311,277.821H618.589V266.594h.1v11.129h28.625Z" transform="translate(-553.311 -240.339)"/><rect class="a" width="0.097" height="6.26" transform="translate(59.077 26.261)"/><rect class="a" width="0.097" height="6.26" transform="translate(71.949 26.261)"/><rect class="a" width="0.097" height="6.26" transform="translate(78.7 26.261)"/><rect class="a" width="0.097" height="6.26" transform="translate(85.452 26.261)"/><rect class="a" width="0.097" height="6.26" transform="translate(92.204 26.261)"/><rect class="a" width="0.097" height="6.26" transform="translate(75.3 37.433)"/><rect class="a" width="0.097" height="6.26" transform="translate(88.804 37.433)"/><rect class="b" width="7.432" height="1.457" transform="translate(49.483 29.508)"/><rect class="a" width="3.74" height="1.457" transform="translate(57.255 12.556)"/><rect class="a" width="3.74" height="1.457" transform="translate(70.127 12.556)"/><rect class="a" width="3.74" height="1.457" transform="translate(76.879 12.556)"/><rect class="a" width="3.74" height="1.457" transform="translate(73.479 1.481)"/><rect class="a" width="3.74" height="1.457" transform="translate(86.982 1.481)"/><rect class="a" width="3.74" height="1.457" transform="translate(83.63 12.556)"/><rect class="a" width="3.74" height="1.457" transform="translate(90.382 12.556)"/><path class="a" d="M539.59,222.191h-44.4v6.266h.1v-6.169h44.3Z" transform="translate(-442.068 -200.309)"/><path class="a" d="M647.311,108.5H618.589V119.73h.1V108.6h28.625Z" transform="translate(-553.311 -97.817)"/><rect class="a" width="0.097" height="6.26" transform="translate(59.077 15.646)"/><rect class="a" width="0.097" height="6.26" transform="translate(71.949 15.646)"/><rect class="a" width="0.097" height="6.26" transform="translate(78.7 15.646)"/><rect class="a" width="0.097" height="6.26" transform="translate(85.452 15.646)"/><rect class="a" width="0.097" height="6.26" transform="translate(92.204 15.646)"/><rect class="a" width="0.097" height="6.26" transform="translate(75.3 4.474)"/><rect class="a" width="0.097" height="6.26" transform="translate(88.804 4.474)"/><path class="c" d="M343.334,133.807a4.553,4.553,0,0,0-3.491-2.073s-2.26-.289-3.709,2.727c-1.351,2.811-3.216,5.526-.3,6.184l.527-1.639.326,1.761a11.407,11.407,0,0,0,1.247.021c3.122-.1,6.1.029,6-1.091C343.807,138.209,344.462,135.712,343.334,133.807Z" transform="translate(-309.516 -131.727)"/><path class="d" d="M367.685,196.928a1.236,1.236,0,0,1-.107.652c-.22.384-.756.441-1.078.743a1.811,1.811,0,0,0-.394,1.3,3.59,3.59,0,0,0,.146,1.44,3.5,3.5,0,0,0,.409.7q.3.426.6.848a3.652,3.652,0,0,0,.357.448,3.04,3.04,0,0,0,1.344.713,1.679,1.679,0,0,0,.976.065,1.87,1.87,0,0,0,.568-.349,3.043,3.043,0,0,0,.643-.623,2.9,2.9,0,0,0,.393-1.328,28.655,28.655,0,0,0,.189-4.128,1.011,1.011,0,0,0-.079-.439c-.163-.319-.6-.387-.831-.661a1.322,1.322,0,0,1-.2-.875l0-.78a.326.326,0,0,0-.038-.19.322.322,0,0,0-.224-.1,7.539,7.539,0,0,0-1.467-.1,3.622,3.622,0,0,0-1.506.2c-.312.2.079.757.151,1.069A6.961,6.961,0,0,1,367.685,196.928Z" transform="translate(-338.191 -188.1)"/><path class="c" d="M315.705,723.972a1.2,1.2,0,0,0,.062,1.037,1.046,1.046,0,0,0,.443.324,3.156,3.156,0,0,0,1.408.207.665.665,0,0,0,.5-.191,6.134,6.134,0,0,0,2.122-3.62.343.343,0,0,0-.011-.222.353.353,0,0,0-.148-.125,3.325,3.325,0,0,0-.792-.362C317.76,720.626,316.083,722.686,315.705,723.972Z" transform="translate(-292.685 -662.941)"/><path class="c" d="M467.554,665.178a2.248,2.248,0,0,0,.742.565,1.042,1.042,0,0,0,.907-.015,1.324,1.324,0,0,0,.505-1.276,5.059,5.059,0,0,0-.977-2.423c-.155-.23-.5-.916-.8-.925-.143,0-.677.514-.822.613-.531.36-.9.618-.788,1.31A4.631,4.631,0,0,0,467.554,665.178Z" transform="translate(-428.528 -608.969)"/><circle class="d" cx="3.151" cy="3.151" r="3.151" transform="translate(27.256 1.186)"/><path class="e" d="M351.52,235.393a4.607,4.607,0,0,1-.491-.955,1.55,1.55,0,0,1-.009-1.054.863.863,0,0,0-1.051.268,1.9,1.9,0,0,0-.346,1.109,7.229,7.229,0,0,1-.084,1.176c-.189.85-.892,1.549-.944,2.419a6.458,6.458,0,0,0,.824,2.408,4.015,4.015,0,0,1,.215,1.567.629.629,0,0,0,.1.489.558.558,0,0,0,.218.118,14.19,14.19,0,0,0,4.372.57l2.437.062a.777.777,0,0,0,.43-.072c.219-.134.248-.435.252-.691.032-2.209-.062-4.417-.156-6.625a14.074,14.074,0,0,0-.238-2.387.685.685,0,0,0-.3-.509.658.658,0,0,0-.5.034,4,4,0,0,0-1.873,1.442c-.5.712-.746,1.566-1.236,2.283-.355.52-.561.067-.8-.316Z" transform="translate(-322.411 -223.25)"/><path class="f" d="M327.79,221.264c-.188.092-.4.132-.578.241a1.726,1.726,0,0,0-.5.553l-.747,1.124a3.484,3.484,0,0,0-.428.782,3.621,3.621,0,0,0-.135,1.068q-.046,1.5-.187,3a10.779,10.779,0,0,1-.207,1.432c-.089.383-.215.756-.34,1.128l-1.384,4.1a1.551,1.551,0,0,0-.119.646.53.53,0,0,0,.386.482.757.757,0,0,0,.416-.084,4.478,4.478,0,0,0,1.46-.885,5.382,5.382,0,0,0,1.181-2.526,5.719,5.719,0,0,0,.259-1.471c0-1.133-.671-2.183-.688-3.317a5.8,5.8,0,0,1,.083-.919,12.131,12.131,0,0,1,.529-2.441,4.165,4.165,0,0,1,1.43-2.006c.326-.231,1.2-.693.861-1.224S328.123,221.1,327.79,221.264Z" transform="translate(-299.487 -211.984)"/><path class="c" d="M304.687,325.065q-3.388-.263-6.781-.437a.671.671,0,0,0-.537.129.661.661,0,0,0-.123.231l-.483,1.3a4.04,4.04,0,0,1-.739,1.566c-.427.443-.936.8-1.358,1.251a4.614,4.614,0,0,0-1.189,2.426,22.339,22.339,0,0,1-.244,2.25,11.185,11.185,0,0,0,.138,2.768,31.8,31.8,0,0,1-.389,4.138c-.55,3.982-1.1,7.964-1.7,11.939-.491,3.264-.974,6.787.559,9.71a3.908,3.908,0,0,0,1.566,1.724,4.75,4.75,0,0,0,1.222.384,28.087,28.087,0,0,0,3.288.487,1.43,1.43,0,0,0,1.258-.307,1.449,1.449,0,0,0,.238-.857l.121-1.967a27.234,27.234,0,0,0-.469-7.67c-.192-.838-.432-1.665-.593-2.51a13.452,13.452,0,0,1-.235-2.434,7.756,7.756,0,0,1,.161-1.744c.415-1.849,1.792-3.516,1.592-5.4a15.385,15.385,0,0,1,2.086,6.206,30.223,30.223,0,0,0,1.151,4.785c.6,1.683,1.481,3.354,1.355,5.135a6.722,6.722,0,0,1-.184,1.1,1.87,1.87,0,0,0,2.567,2.146l.029-.013c1.3-.6,1.953-2.172,3.277-2.71.615-.25,1.38-.285,1.629-1.04a1.325,1.325,0,0,0,.054-.54,4.569,4.569,0,0,0-.677-1.629,12.468,12.468,0,0,1-1.027-3.707q-.317-1.893-.621-3.788a14.692,14.692,0,0,0-.537-2.448c-.119-.346-.264-.684-.359-1.038-.356-1.321.012-2.728-.137-4.088a41.587,41.587,0,0,0-.811-4.55,32.308,32.308,0,0,1-.595-5.941,6.793,6.793,0,0,0-.355-2.336A6.208,6.208,0,0,0,304.687,325.065Z" transform="translate(-270.313 -305.628)"/><path class="c" d="M237.941,8.2,235.65,7l-3.164.491-.655,2.891,1.629-.063.455-1.062V10.3l.752-.029.436-1.691.273,1.8,2.673-.055Z" transform="translate(-204.642 -6.31)"/><path class="f" d="M408.6,218.541a1.279,1.279,0,0,1,.671-.333.346.346,0,0,0,.237-.1.3.3,0,0,0,.04-.176,8.556,8.556,0,0,0-.138-1.657,1.667,1.667,0,0,1,.675-.092l2.121.006a3.028,3.028,0,0,1,1.256.182,2,2,0,0,1,.908.929,5.367,5.367,0,0,1,.41,1.255c.252,1.089-.653,2.184-.734,3.3-.023.321,0,.645-.026.966-.031.338-.125.669-.132,1.009a3.462,3.462,0,0,0,.254,1.226c.43,1.208,1.043,2.341,1.541,3.523a2.943,2.943,0,0,1,.254.852,1.1,1.1,0,0,1-.234.835,1.97,1.97,0,0,1-.815.439,5.329,5.329,0,0,0-1.042.535,2.2,2.2,0,0,1-.424.246,2.7,2.7,0,0,1-.452.1,9.106,9.106,0,0,0-1.144.359.469.469,0,0,1-.383.01.46.46,0,0,1-.148-.176,10.725,10.725,0,0,1-1.152-4.18,22.534,22.534,0,0,0-.7-4.3,9.83,9.83,0,0,1-.378-1.271c-.111-.63-.028-1.283-.142-1.912A6.276,6.276,0,0,1,408.6,218.541Z" transform="translate(-376.501 -207.867)"/><path class="d" d="M443.252,346.005a4.312,4.312,0,0,0-1.554,1.34c-.09.118.031.338.3.335.25,0,.4-.323.648-.327a10.838,10.838,0,0,0,.413,1.967,4.93,4.93,0,0,0,1.081-1.651l.564-1.182c.207-.434.414-.868.6-1.311a.947.947,0,0,0,.093-.331c.025-.763-.727-.767-1.052-.29C443.99,345.078,443.879,345.705,443.252,346.005Z" transform="translate(-406.321 -323.302)"/><path class="f" d="M450.9,229.123a10.554,10.554,0,0,1,1.342,1.592,3.541,3.541,0,0,1,.617,1.96,1.87,1.87,0,0,0,.019.528,1.505,1.505,0,0,0,.24.444,8.465,8.465,0,0,1,1.088,2.254,1.98,1.98,0,0,0,.178.454c.071.117.168.215.247.327a1.252,1.252,0,0,1,.022,1.372.46.46,0,0,0-.085.167c-.032.191.208.307.3.48a.459.459,0,0,1-.145.529,1.344,1.344,0,0,1-.535.239c.249.356-.053.856-.154,1.278-.071.3-.07.6-.116.9a1.294,1.294,0,0,1-.382.806.239.239,0,0,1-.105.059c-.128.025-.216-.123-.261-.246a4.081,4.081,0,0,0-.527-1.1,1.345,1.345,0,0,0-1.027-.576.548.548,0,0,1,.04-.5c.082-.154.2-.284.291-.433a2,2,0,0,0,.229-.654,4.294,4.294,0,0,0-.567-3.062,2.936,2.936,0,0,0-.473-.591c-.2-.186-.431-.336-.615-.537a2.1,2.1,0,0,1-.489-1.187,6.255,6.255,0,0,1,.034-1.3c.083-.857.189-1.714.311-2.566a.957.957,0,0,1,.085-.32A.811.811,0,0,1,450.9,229.123Z" transform="translate(-413.839 -219.531)"/></g></svg>