<svg xmlns="http://www.w3.org/2000/svg" xmlns:xlink="http://www.w3.org/1999/xlink" width="110.063" height="67.727" viewBox="0 0 110.063 67.727"><defs><style>.a{fill:#3f3d56;}.b{opacity:0.1;}.c{fill:#f2f2f2;}.d{fill:url(#a);}.e{fill:#6c63ff;}.f{fill:#2f2e41;}.g{fill:#fbbebe;}.h{fill:url(#c);}</style><linearGradient id="a" x1="0.5" x2="0.5" y2="1" gradientUnits="objectBoundingBox"><stop offset="0" stop-color="#f85e5b"/><stop offset="1" stop-color="#d0335b"/></linearGradient><linearGradient id="c" x1="0.5" x2="0.5" y2="1" gradientUnits="objectBoundingBox"><stop offset="0" stop-color="#f95f5b"/><stop offset="1" stop-color="#cf325b"/></linearGradient></defs><g transform="translate(0 -162)"><ellipse class="a" cx="49.452" cy="3.03" rx="49.452" ry="3.03" transform="translate(5.785 217.022)"/><ellipse class="b" cx="42.122" cy="2.003" rx="42.122" ry="2.003" transform="translate(13.115 218)"/><ellipse class="a" cx="20.738" cy="1.808" rx="20.738" ry="1.808" transform="translate(0 226.111)"/><ellipse class="b" cx="17.664" cy="1.196" rx="17.664" ry="1.196" transform="translate(3.074 226.694)"/><rect class="a" width="73.493" height="57.661" transform="translate(19.174 162)"/><path class="c" d="M431.123,261.066H412.992a.22.22,0,0,1,0-.44h18.131a.22.22,0,1,1,0,.44Z" transform="translate(-376.038 -91.186)"/><path class="c" d="M538.32,285.832H509.8a.22.22,0,1,1,0-.44H538.32a.22.22,0,1,1,0,.44Z" transform="translate(-463.388 -113.532)"/><path class="c" d="M432.023,310.6H413.893a.22.22,0,0,1,0-.44h18.131a.22.22,0,1,1,0,.44Z" transform="translate(-376.851 -135.877)"/><path class="c" d="M634.2,311.048H616.071a.22.22,0,1,1,0-.44H634.2a.22.22,0,0,1,0,.44Z" transform="translate(-559.27 -136.283)"/><path class="c" d="M432.474,335.363H414.343a.22.22,0,1,1,0-.44h18.131a.22.22,0,1,1,0,.44Z" transform="translate(-377.257 -158.222)"/><path class="c" d="M432.924,360.129H414.793a.22.22,0,0,1,0-.44h18.131a.22.22,0,0,1,0,.44Z" transform="translate(-377.664 -180.568)"/><path class="c" d="M636.573,261.517h-5.193a.22.22,0,1,1,0-.44h5.193a.22.22,0,1,1,0,.44Z" transform="translate(-573.084 -91.593)"/><path class="c" d="M636.573,335.363h-5.193a.22.22,0,1,1,0-.44h5.193a.22.22,0,1,1,0,.44Z" transform="translate(-573.084 -158.222)"/><path class="c" d="M636.573,359.679h-5.193a.22.22,0,1,1,0-.44h5.193a.22.22,0,1,1,0,.44Z" transform="translate(-573.084 -180.162)"/><path class="c" d="M725.73,359.679h-5.193a.22.22,0,0,1,0-.44h5.193a.22.22,0,1,1,0,.44Z" transform="translate(-653.527 -180.162)"/><path class="c" d="M417.735,285.832h-5.193a.22.22,0,1,1,0-.44h5.193a.22.22,0,1,1,0,.44Z" transform="translate(-375.632 -113.532)"/><path class="c" d="M431.348,625.8H413.217a.22.22,0,0,1,0-.44h18.131a.22.22,0,1,1,0,.44Z" transform="translate(-376.241 -420.272)"/><path class="c" d="M430.447,675.329H412.317a.22.22,0,0,1,0-.44h18.131a.22.22,0,1,1,0,.44Z" transform="translate(-375.429 -464.963)"/><path class="c" d="M430.9,700.095H412.767a.22.22,0,1,1,0-.44H430.9a.22.22,0,0,1,0,.44Z" transform="translate(-375.835 -487.308)"/><path class="c" d="M629.594,675.779H624.4a.22.22,0,0,1,0-.44h5.193a.22.22,0,1,1,0,.44Z" transform="translate(-566.786 -465.369)"/><path class="c" d="M629.594,700.095H624.4a.22.22,0,0,1,0-.44h5.193a.22.22,0,1,1,0,.44Z" transform="translate(-566.786 -487.308)"/><path class="c" d="M718.751,675.779h-5.193a.22.22,0,1,1,0-.44h5.193a.22.22,0,1,1,0,.44Z" transform="translate(-647.23 -465.369)"/><path class="c" d="M538.545,650.564H510.029a.22.22,0,0,1,0-.44h28.516a.22.22,0,0,1,0,.44Z" transform="translate(-463.591 -442.618)"/><path class="c" d="M417.96,650.564h-5.193a.22.22,0,0,1,0-.44h5.193a.22.22,0,0,1,0,.44Z" transform="translate(-375.835 -442.618)"/><path class="c" d="M538.545,725.311H510.029a.22.22,0,0,1,0-.44h28.516a.22.22,0,0,1,0,.44Z" transform="translate(-463.591 -510.06)"/><path class="c" d="M417.96,725.311h-5.193a.22.22,0,0,1,0-.44h5.193a.22.22,0,0,1,0,.44Z" transform="translate(-375.835 -510.06)"/><path class="d" d="M454.055,401.13l-7.041,6.953,7.041,6.953,1.584-1.584-5.325-5.325,5.369-5.369Z" transform="translate(-403.327 -215.76)"/><path class="d" d="M610.3,401.13l7.041,6.953-7.041,6.953-1.584-1.584,5.325-5.325-5.369-5.369Z" transform="translate(-549.182 -215.76)"/><circle class="e" cx="0.88" cy="0.88" r="0.88" transform="translate(20.249 162.586)"/><circle class="e" cx="0.88" cy="0.88" r="0.88" transform="translate(22.595 162.586)"/><circle class="e" cx="0.88" cy="0.88" r="0.88" transform="translate(24.94 162.586)"/><rect class="b" width="73.493" height="0.293" transform="translate(19.174 164.932)"/><path class="c" d="M1010.295,499.216c0,6.232-3.7,8.408-8.275,8.408s-8.276-2.176-8.276-8.408,8.276-14.161,8.276-14.161S1010.295,492.984,1010.295,499.216Z" transform="translate(-900.232 -293.682)"/><path class="a" d="M1007.726,484.172l.085-5.216,3.527-6.453-3.514,5.635.038-2.345,2.431-4.669-2.421,4.048h0l.068-4.218,2.6-3.717-2.592,3.054.043-7.734-.269,10.239.022-.422-2.647-4.051,2.6,4.862-.247,4.711-.007-.125-3.051-4.263,3.042,4.7-.031.589-.005.009,0,.048-.626,11.952h.836l.1-6.174,3.034-4.693Z" transform="translate(-906.24 -271.183)"/><path class="f" d="M133.3,768.294a4.2,4.2,0,0,1-.8.342c-.5.136-1.027.086-1.528.2a.628.628,0,0,0-.494.347.728.728,0,0,0,.054.452,24.342,24.342,0,0,0,1.771,4.82,7.3,7.3,0,0,0,1.368,1.66,1.3,1.3,0,0,0,.7.387.708.708,0,0,0,.72-1c-.079-.176-.226-.312-.321-.48a1.833,1.833,0,0,1-.178-.683,4.442,4.442,0,0,1,.069-2.078,6.989,6.989,0,0,1,.7-1.216,2.123,2.123,0,0,0,.4-1.324,2.3,2.3,0,0,0-.357-.885c-.164-.276-.489-1.017-.819-1.109S133.6,768.141,133.3,768.294Z" transform="translate(-121.318 -548.721)"/><path class="f" d="M245.826,813.162a1.371,1.371,0,0,1-.065.464c-.1.273-.36.46-.492.72a1.59,1.59,0,0,0,.021,1.186,1.215,1.215,0,0,0,.382.645,1.261,1.261,0,0,0,.582.186,49.13,49.13,0,0,0,5.332.155,1.82,1.82,0,0,0,.95-.138.6.6,0,0,0,.265-.818c-.173-.234-.515-.232-.805-.246a3.314,3.314,0,0,1-2.044-.842,1.474,1.474,0,0,1-.287-.33,2.031,2.031,0,0,1-.15-.344,15.327,15.327,0,0,0-.888-1.966,1.042,1.042,0,0,0-.382-.457,1.01,1.01,0,0,0-.414-.091c-.443-.029-1.591-.18-1.934.165C245.581,811.771,245.833,812.758,245.826,813.162Z" transform="translate(-224.808 -587.979)"/><circle class="g" cx="2.832" cy="2.832" r="2.832" transform="translate(20.914 180.153)"/><path class="g" d="M245.678,411.02a2.129,2.129,0,0,1-.87,1.117l3.917.8a4.148,4.148,0,0,1-.055-1.746,1.006,1.006,0,0,0,.023-.431c-.074-.284-.393-.421-.68-.486a9.089,9.089,0,0,1-2.011-.566A9.462,9.462,0,0,0,245.678,411.02Z" transform="translate(-224.49 -225.697)"/><path class="f" d="M211.722,421.212a3.063,3.063,0,0,1,2.669.07,6.044,6.044,0,0,1,1.326,1.058,2.118,2.118,0,0,1,.8,1.3,3.649,3.649,0,0,1-.106.751,2.518,2.518,0,0,0,1.347,2.587,3.427,3.427,0,0,1,.38,1.751c.018,2.29-.7,4.609-.189,6.841.121.524.309,1.031.414,1.559.136.683.129,1.386.2,2.079a9.31,9.31,0,0,0,.5,2.2.913.913,0,0,1-.845.353,2.385,2.385,0,0,1-.9-.306c-1.38-.706-2.644-1.638-4.074-2.238-.946-.4-1.953-.645-2.871-1.1a3.76,3.76,0,0,1-2.051-2.173,5.088,5.088,0,0,1-.135-1.32,23.955,23.955,0,0,1,.353-5.58,38.8,38.8,0,0,0,1.2-4.787,3.257,3.257,0,0,1,.348-1.551C210.512,422.071,211.422,421.908,211.722,421.212Z" transform="translate(-191.436 -235.832)"/><path class="f" d="M235.013,359.752a.732.732,0,0,1,.755-.183c.267.064.512.2.782.254a.457.457,0,0,0,.366-.051.532.532,0,0,0,.158-.349,6.664,6.664,0,0,0,.066-1.7.5.5,0,0,1,.015-.238c.067-.161.27-.2.436-.25a1.3,1.3,0,0,0,.881-1.332.53.53,0,0,0-.162-.366.667.667,0,0,0-.424-.1q-1.142-.009-2.284,0a1.658,1.658,0,0,0-.822.15,3.981,3.981,0,0,0-.477.4,4.676,4.676,0,0,1-1.509.585,1.5,1.5,0,0,0-.661.394.7.7,0,0,0-.146.722,2.546,2.546,0,0,0,.184.284c.3.485.1,1.114.147,1.685a3.082,3.082,0,0,0,1.825,2.036C235.3,361.969,234.631,360.219,235.013,359.752Z" transform="translate(-212.878 -176.727)"/><path class="f" d="M241.983,673.34a8.455,8.455,0,0,1,.141,1.567c-.035.732-.3,1.438-.348,2.169-.036.547.048,1.1-.028,1.641-.049.347-.162.682-.232,1.026a4.241,4.241,0,0,0,.681,3.251.534.534,0,0,0,.2.192.562.562,0,0,0,.245.032,17.56,17.56,0,0,0,2.46-.224.235.235,0,0,0,.158-.07.222.222,0,0,0,.034-.093,7.893,7.893,0,0,0-.281-2.339,7.258,7.258,0,0,1,.307-2.5,11.1,11.1,0,0,1,.339-1.2c.1-.264.213-.52.3-.788a6,6,0,0,0,.215-1.29q.087-1.034.092-2.072a8.7,8.7,0,0,0-.163-1.956,10.422,10.422,0,0,0-.932-2.319,1.468,1.468,0,0,0-.549.261,12.247,12.247,0,0,1-1.5.829c-.349.162-1.028.277-1.25.614s-.077,1.011-.061,1.378Q241.851,672.4,241.983,673.34Z" transform="translate(-221.446 -459.085)"/><path class="b" d="M241.983,673.34a8.455,8.455,0,0,1,.141,1.567c-.035.732-.3,1.438-.348,2.169-.036.547.048,1.1-.028,1.641-.049.347-.162.682-.232,1.026a4.241,4.241,0,0,0,.681,3.251.534.534,0,0,0,.2.192.562.562,0,0,0,.245.032,17.56,17.56,0,0,0,2.46-.224.235.235,0,0,0,.158-.07.222.222,0,0,0,.034-.093,7.893,7.893,0,0,0-.281-2.339,7.258,7.258,0,0,1,.307-2.5,11.1,11.1,0,0,1,.339-1.2c.1-.264.213-.52.3-.788a6,6,0,0,0,.215-1.29q.087-1.034.092-2.072a8.7,8.7,0,0,0-.163-1.956,10.422,10.422,0,0,0-.932-2.319,1.468,1.468,0,0,0-.549.261,12.247,12.247,0,0,1-1.5.829c-.349.162-1.028.277-1.25.614s-.077,1.011-.061,1.378Q241.851,672.4,241.983,673.34Z" transform="translate(-221.446 -459.085)"/><path class="f" d="M173.537,605.518c-.376,1.012.177,2.106.657,3.074a53.749,53.749,0,0,1,2.822,7.458.915.915,0,0,1,.054.584.765.765,0,0,1-.276.327,6.514,6.514,0,0,1-1.952.8,8.812,8.812,0,0,0-1.851.868c-.486.3-.942.649-1.4,1l-1.448,1.105a.97.97,0,0,0-.242.234.946.946,0,0,0-.013.755,12.841,12.841,0,0,0,.709,1.934.676.676,0,0,0,.257.337c.226.121.5-.04.675-.229s.322-.426.565-.508.51.017.764-.018c.41-.058.683-.436.979-.726,1.208-1.186,3.226-1.1,4.555-2.148a5.791,5.791,0,0,1,.609-.476c.225-.133.48-.206.713-.323a3.022,3.022,0,0,0,1.394-1.853c.239-.757.307-1.557.479-2.332a10.148,10.148,0,0,0,.245-1.206,6.458,6.458,0,0,0-.025-1.14l-.48-5.934c-.039-.483-.078-.967-.154-1.446-1.425.051-2.848.108-4.274.125A10.192,10.192,0,0,1,173.537,605.518Z" transform="translate(-156.829 -402.372)"/><path class="f" d="M201.236,598.235a.761.761,0,0,0,.988.134c.324-.17.576-.457.9-.626a2.924,2.924,0,0,1,1.444-.2,9.392,9.392,0,0,1,2.315.259,6.367,6.367,0,0,0,2.329.561.479.479,0,0,0,.368-.172.542.542,0,0,0,.061-.277l.026-.7a.632.632,0,0,0-.056-.354.594.594,0,0,0-.265-.2,9.159,9.159,0,0,0-3.705-.7q-.965-.033-1.931-.027a7.043,7.043,0,0,0-1.734.07C201.262,596.192,200.874,597.653,201.236,598.235Z" transform="translate(-185.051 -393.701)"/><path class="h" d="M206.931,422.756c-1.494-.013-2.847-1-4.34-1.023a1.125,1.125,0,0,0-.527.091,1.96,1.96,0,0,0-.5.479c-.442.478-1.081.733-1.535,1.2a1.78,1.78,0,0,0-.494,1.676,1.246,1.246,0,0,0,1.4.9,3.6,3.6,0,0,1,1.4-1.9,7.129,7.129,0,0,1,1.1-.575,3.031,3.031,0,0,1,2.122-.386,2.991,2.991,0,0,1,.724.395l1.168.785A8.137,8.137,0,0,0,206.931,422.756Z" transform="translate(-183.589 -236.545)"/><path class="h" d="M193.367,436.777c-.2.247.087.606.044.92-.029.209-.2.368-.272.566a3.037,3.037,0,0,0-.063.649,2.786,2.786,0,0,1-.125.462,8.3,8.3,0,0,0-.263,1.371l-.261,1.952a7.385,7.385,0,0,0-.083.887,2.651,2.651,0,0,1-.044.663,4.909,4.909,0,0,1-.272.6.707.707,0,0,0-.01.638,1.115,1.115,0,0,0-.233,1.391.773.773,0,0,1,.12.221.569.569,0,0,1-.053.326l-.264.7c-.068.18-.089.455.1.5a1.663,1.663,0,0,0-.357.564.671.671,0,0,0,.1.636.808.808,0,0,1,.166.2.535.535,0,0,1-.019.317,1.164,1.164,0,0,0,.144.912.818.818,0,0,0,.823.353,3.761,3.761,0,0,1,1.537-.21,27.451,27.451,0,0,1,3.411.777,18.623,18.623,0,0,0,3.824,1.124.371.371,0,0,0,.256-.04.384.384,0,0,0,.118-.243l.41-1.922a19.763,19.763,0,0,0,.377-2.153c.047-.467.06-.937.073-1.407l.106-3.736a3.733,3.733,0,0,0-.215-1.624l-.608-1.94c-.347-1.107-1.142-2.089-1.425-3.214a4.751,4.751,0,0,0-.792-2.031,3.246,3.246,0,0,0-2.909-.778,3.475,3.475,0,0,0-1.347.411,4.414,4.414,0,0,0-1.149,1.157C193.929,436.138,193.649,436.425,193.367,436.777Z" transform="translate(-176.201 -247.766)"/><path class="g" d="M236.453,550.948c.086.369.265.709.375,1.071.184.607.169,1.26.352,1.867.077.255.189.5.244.76a3.148,3.148,0,0,1-.294,1.81,7.069,7.069,0,0,0-.6,1.757,1.346,1.346,0,0,0,.358,1.205,1.761,1.761,0,0,0,1.3.234,1.37,1.37,0,0,0,.473-.1,1.278,1.278,0,0,0,.572-.947,14.046,14.046,0,0,0,.115-3.831l-.206-3.346a7.831,7.831,0,0,0-.281-1.92,1.83,1.83,0,0,0-.4-.823,2.716,2.716,0,0,0-1.037-.16C236.248,548.471,236.261,550.121,236.453,550.948Z" transform="translate(-216.863 -350.948)"/><path class="f" d="M228.9,446.268a.814.814,0,0,0-.779.069,2.4,2.4,0,0,0-.584.567,3.216,3.216,0,0,0-1,2.187,5.548,5.548,0,0,0,.226.9c.35,1.308-.037,2.691.007,4.043a12.66,12.66,0,0,0,.365,2.314c.035.156.09.336.241.389a.523.523,0,0,0,.348-.054,2.773,2.773,0,0,1,2.537.32c.28-.149.175-.622.112-.933a5.361,5.361,0,0,1,.374-2.769,10.205,10.205,0,0,0,.726-2.723,8.322,8.322,0,0,0-.645-3.118,1,1,0,0,0-.845-.836A5.822,5.822,0,0,1,228.9,446.268Z" transform="translate(-208.001 -258.621)"/></g></svg>