<svg xmlns="http://www.w3.org/2000/svg" xmlns:xlink="http://www.w3.org/1999/xlink" width="82.469" height="75.384" viewBox="0 0 82.469 75.384"><defs><style>.a{fill:url(#a);}.b{opacity:0.1;}.c{fill:#2f2e41;}.d{fill:#a0616a;}.e{fill:#d0cde1;}.f{fill:#575a89;}.g{fill:#3f3d56;}</style><linearGradient id="a" x1="0.5" x2="0.5" y2="1" gradientUnits="objectBoundingBox"><stop offset="0" stop-color="#f85e5b"/><stop offset="1" stop-color="#d0335b"/></linearGradient></defs><path class="a" d="M254.032,279.943c0,11.467-16.907,20.762-37.762,20.762-11.2,0-21.268-2.682-28.183-6.944-4.512-2.779-7.684-6.232-8.956-10.047a11.826,11.826,0,0,1-.623-3.772c0-11.466,31.293-63.187,37.762-20.761S254.032,268.477,254.032,279.943Z" transform="translate(-178.508 -225.321)"/><path class="b" d="M240.777,629.318c0,4.234-13.371,7.667-29.866,7.667a98.956,98.956,0,0,1-17.083-1.378c-4.512-2.779-7.684-6.232-8.956-10.047,5.121-2.333,14.863-3.909,26.04-3.909C227.406,621.652,240.777,625.084,240.777,629.318Z" transform="translate(-184.248 -567.167)"/><path class="c" d="M367.536,214.894a9.2,9.2,0,0,0-7.05-4.186s-4.563-.584-7.49,5.508c-2.728,5.677-6.494,11.159-.606,12.488l1.064-3.31.659,3.556a23.038,23.038,0,0,0,2.519.043c6.305-.2,12.31.06,12.117-2.2C368.49,223.782,369.813,218.742,367.536,214.894Z" transform="translate(-332.566 -196.412)"/><path class="c" d="M368.884,592.27a9.342,9.342,0,0,1-.3,1.3c-.148.417-.377.8-.512,1.222a4.086,4.086,0,0,0,1.123,3.872,6.318,6.318,0,0,0,3.081,1.829,12.566,12.566,0,0,0,2.647.278,20.542,20.542,0,0,0,7.316-.633,12.711,12.711,0,0,0,2.126-.966,1.593,1.593,0,0,0,.551-.434,1.518,1.518,0,0,0,.2-.891c-.005-1.043-.217-2.081-.167-3.123a12.374,12.374,0,0,0,.083-1.729,3.19,3.19,0,0,0-2.438-2.748,6.627,6.627,0,0,0-2.021,0,51.517,51.517,0,0,1-5.259.235c-1.794-.011-3.577-.285-5.362-.314-.528-.008-.517.154-.685.665A12.446,12.446,0,0,0,368.884,592.27Z" transform="translate(-349.396 -538.763)"/><path class="d" d="M409.978,328.542a3.132,3.132,0,0,1-.451,1.29c-.312.427-.821.671-1.157,1.079a3.528,3.528,0,0,0-.536,2.276,2.8,2.8,0,0,0,1.486,3.062c1.533,1.033,3.19,2.085,5.039,2.119a2.68,2.68,0,0,0,2.091-.761,3.141,3.141,0,0,0,.506-.9,12,12,0,0,0,.849-3.652,4.289,4.289,0,0,0-.162-1.754,16.2,16.2,0,0,0-.979-1.735,3.863,3.863,0,0,1-.372-2.286.247.247,0,0,0-.013-.166.241.241,0,0,0-.2-.081l-3.666-.264a7.983,7.983,0,0,1-1.018-.116c-.2-.04-.72-.321-.908-.246C410.141,326.543,410.05,328.168,409.978,328.542Z" transform="translate(-385.399 -300.793)"/><path class="b" d="M409.978,329.712a3.132,3.132,0,0,1-.451,1.29c-.312.427-.821.671-1.157,1.079a3.528,3.528,0,0,0-.536,2.276,2.8,2.8,0,0,0,1.486,3.062c1.533,1.033,3.19,2.085,5.039,2.119a2.679,2.679,0,0,0,2.091-.761,3.141,3.141,0,0,0,.506-.9,12,12,0,0,0,.849-3.652,4.288,4.288,0,0,0-.162-1.754,16.208,16.208,0,0,0-.979-1.735,3.862,3.862,0,0,1-.372-2.286.247.247,0,0,0-.013-.166.241.241,0,0,0-.2-.081l-3.666-.264a7.983,7.983,0,0,1-1.018-.116c-.2-.04-.72-.321-.908-.246C410.141,327.713,410.05,329.338,409.978,329.712Z" transform="translate(-385.399 -301.848)"/><circle class="d" cx="5.378" cy="5.378" r="5.378" transform="translate(22.707 17.485)"/><path class="e" d="M419.54,388.44a3.3,3.3,0,0,0,.945.755,2.969,2.969,0,0,0,1.18.225,3.558,3.558,0,0,0,2.695-.847c.869-.9.841-2.348,1.522-3.4a.755.755,0,0,1,.22-.24.711.711,0,0,1,.373-.086,3.869,3.869,0,0,1,2.287,1.082,3.013,3.013,0,0,1,.8.82,2.78,2.78,0,0,1,.271.831,36.524,36.524,0,0,1,.552,4.984c.06.922.119,1.845.115,2.769a40.044,40.044,0,0,1-1.426,9,1.406,1.406,0,0,1-.562.991,1.384,1.384,0,0,1-.49.12,60,60,0,0,1-6.064.5q-1.188.018-2.375-.058a1.278,1.278,0,0,1-.4-.07,1.128,1.128,0,0,1-.436-.37c-1.1-1.383-1.162-3.3-1.155-5.061q.026-6.475.463-12.94a1.424,1.424,0,0,0-.227-1.068A13.372,13.372,0,0,0,419.54,388.44Z" transform="translate(-394.207 -353.531)"/><path class="f" d="M349.266,353.64a18.79,18.79,0,0,1-1.779,1.418c-1.445,1.523-4.081,1.466-5.4,3.1a5.081,5.081,0,0,0-.884,2.012,4.812,4.812,0,0,0,.035,3.075,15.254,15.254,0,0,0,1.836,2.377,9.155,9.155,0,0,1,1.195,3.066,7.059,7.059,0,0,1,.327,2.409,14.562,14.562,0,0,1-.8,2.654,2.821,2.821,0,0,0,.3,2.644,3.016,3.016,0,0,0,1.82.83,20.937,20.937,0,0,0,2.594.226,3.161,3.161,0,0,0,2.2-.451,2.214,2.214,0,0,0,.694-1.623,10.478,10.478,0,0,0-.179-1.805c-.082-.622-.113-1.25-.139-1.878q-.177-4.222-.048-8.45a7.191,7.191,0,0,0-.086-1.753,9.611,9.611,0,0,0-.912-2.121,8.025,8.025,0,0,1-.89-4.239C349.255,353.619,349.912,352.47,349.266,353.64Z" transform="translate(-325.072 -324.941)"/><path class="f" d="M485.874,348.916c.277.284,1.217.378,1.569.561a5.492,5.492,0,0,0,1.031.357A13.391,13.391,0,0,1,492.1,351.5a2.2,2.2,0,0,1,.606.523,2.4,2.4,0,0,1,.335.946,8.054,8.054,0,0,1-.288,5.288l-1.031,3.3a35.362,35.362,0,0,0-1.761,7.515,17.673,17.673,0,0,0,.159,4.268.506.506,0,0,1-.052.413.407.407,0,0,1-.253.116,2.477,2.477,0,0,1-1.43-.4,15.839,15.839,0,0,0-4.366-1.429,10.148,10.148,0,0,0,1.356-2.8,16.907,16.907,0,0,0,.41-1.923l.48-2.774a27.266,27.266,0,0,0,.412-3.068,3.839,3.839,0,0,0-.067-1.156,5.607,5.607,0,0,0-.438-1.042,8.9,8.9,0,0,1-.85-5.319,7.771,7.771,0,0,0,.29-2.366,16.656,16.656,0,0,0-.191-2.1C484.615,346.4,485.353,348.381,485.874,348.916Z" transform="translate(-454.127 -320.102)"/><path class="f" d="M340.536,410.552a12.565,12.565,0,0,0-1.168,2.19,4.78,4.78,0,0,0-.1,1.144,5.436,5.436,0,0,0,.17,1.721c.114.355.3.682.435,1.03a3.735,3.735,0,0,1,.245,1.526c-.036.72-.281,1.42-.3,2.141a6.927,6.927,0,0,0,1.006,3.212,2.361,2.361,0,0,1,3.432-1.124.7.7,0,0,0,.155-.513q.057-1.973.109-3.947a23.6,23.6,0,0,0-.36-6.077,5.733,5.733,0,0,0-1.143-2.479c-.317-.365-1.395-1.327-1.916-.918-.234.184-.18.685-.217.939A3.979,3.979,0,0,1,340.536,410.552Z" transform="translate(-323.537 -374.739)"/><path class="f" d="M522.707,391.113a5.5,5.5,0,0,1,.184,1.655q.01,1.706-.045,3.411a6.36,6.36,0,0,1-.222,1.727c-.116.366-.3.709-.416,1.074a10.063,10.063,0,0,0-.133,3.429,3.892,3.892,0,0,1-.094,1.109,9.136,9.136,0,0,1-1.057,1.936,19.049,19.049,0,0,1-.947,1.874,1.788,1.788,0,0,1-1.783.851,1.969,1.969,0,0,1-1.132-1.056,5.177,5.177,0,0,1-.535-3.358c.254-1.4,1.074-2.635,1.37-4.023.406-1.906-.211-3.873-.193-5.822a2.819,2.819,0,0,1,.123-.9,3.777,3.777,0,0,1,.8-1.158,14.619,14.619,0,0,0,1.07-1.4c.22-.329.52-1.174.911-1.244C521.474,389.055,522.491,390.439,522.707,391.113Z" transform="translate(-483.384 -357.455)"/><path class="c" d="M260.266,601.5a5.309,5.309,0,0,0-1.477-.157,3.686,3.686,0,0,0-3.422,4.345,6.189,6.189,0,0,0,.585,1.6,5.342,5.342,0,0,0,1.586,2.1,6.178,6.178,0,0,0,1.4.666l3.818,1.438c.562.212,1.124.423,1.691.62a33.071,33.071,0,0,0,8.831,1.756,9.566,9.566,0,0,0,2.742-.139.893.893,0,0,0,.562-.3.961.961,0,0,0,.125-.414l.235-1.645a1.378,1.378,0,0,0-.02-.693,1.327,1.327,0,0,0-.635-.6c-2.51-1.442-5.441-2.237-7.554-4.216-.5-.466-.914-1.2-1.518-1.521-.685-.359-1.492-.564-2.2-.894A24.363,24.363,0,0,0,260.266,601.5Z" transform="translate(-247.794 -548.846)"/><path class="b" d="M329.194,622.163c1.35.423,7.048,3.353,8.025,4.376-.131.047-4.573-2.442-4.706-2.482a26.838,26.838,0,0,1-3.58-1.262c-.231-.107-1.5-.61-1.446-.9C327.551,621.563,328.955,622.088,329.194,622.163Z" transform="translate(-312.91 -567.287)"/><path class="d" d="M466.037,705.884a.318.318,0,0,0,.214-.063.33.33,0,0,0,.067-.246l-.006-2.241a6.886,6.886,0,0,0-2.073-.5l-3.3-.441c.076.01-.516,1.422-.425,1.61.16.332,1.383.627,1.728.783A8.639,8.639,0,0,0,466.037,705.884Z" transform="translate(-432.915 -640.009)"/><path class="d" d="M392.441,697.092a2.675,2.675,0,0,0-1.723.672,2.452,2.452,0,0,0-.05,2.295.744.744,0,0,0,.868.621,3,3,0,0,0,1.67-.215,7.284,7.284,0,0,0,.649-.482,4.164,4.164,0,0,1,1.193-.545,12.061,12.061,0,0,1,2.394-.493,3.729,3.729,0,0,0,.943-.166,1.045,1.045,0,0,0,.664-.645,1.537,1.537,0,0,0-.349-1.18,4.706,4.706,0,0,0-1-1.241c-.615-.478-.919-.111-1.539.195A13.056,13.056,0,0,1,392.441,697.092Z" transform="translate(-369.676 -633.775)"/><path class="c" d="M325.032,704.255l-3.958-1.17a5.238,5.238,0,0,0-1.473-.285,1.768,1.768,0,0,0-1.353.547,2.635,2.635,0,0,0-.471,1.319l-.164,1a5.017,5.017,0,0,0-.092,1.534,1.7,1.7,0,0,0,.786,1.264,2.706,2.706,0,0,0,1.83.028,19.927,19.927,0,0,1,3.751-.4,3.01,3.01,0,0,0,1.389-.222,1.734,1.734,0,0,0,.846-1.382C326.2,705.631,325.919,704.517,325.032,704.255Z" transform="translate(-303.897 -640.376)"/><path class="c" d="M517.505,699.935a9.606,9.606,0,0,0,1.457-.554,6.484,6.484,0,0,1,2.175-.24,1.053,1.053,0,0,1,1.24,1.185l.331,2.317a3.636,3.636,0,0,1,.027,1.313,1.235,1.235,0,0,1-.816.954,2.428,2.428,0,0,1-1.513-.413c-1.221-.543-2.641-.4-3.914-.81a.877.877,0,0,1-.586-.419.952.952,0,0,1-.046-.4,10.079,10.079,0,0,1,.089-2.474C516.152,699.755,516.932,699.935,517.505,699.935Z" transform="translate(-482.828 -637.075)"/><path class="c" d="M466.46,591.545a6.873,6.873,0,0,1,2.421-.165,2.552,2.552,0,0,1,2.562,2.88,6.813,6.813,0,0,1-1.481,4.351,3.951,3.951,0,0,1-.847.815,5.574,5.574,0,0,1-1.1.531l-8.551,3.373a55.252,55.252,0,0,1-6.854,2.362.534.534,0,0,1-.719-.26A17.721,17.721,0,0,1,450.016,602a.231.231,0,0,1,.1-.364l6.048-3.475a6.121,6.121,0,0,0,1.231-.848,3.058,3.058,0,0,0,.632-.88c.125-.262.137-.88.3-1.073s.693-.2.941-.279a8.559,8.559,0,0,0,1.024-.387c1.353-.605,2.558-1.485,3.855-2.193A9.9,9.9,0,0,1,466.46,591.545Z" transform="translate(-423.407 -539.819)"/><path class="b" d="M494.009,613.868c-1.039.78-2.385,1.5-3.414,2.3-.351.273-6.211,3.568-6.294,4.005.961.162,7.081-4.12,7.957-4.547A14.138,14.138,0,0,0,494.679,614c.2-.152,1.027-.611.464-.781C494.826,613.12,494.243,613.712,494.009,613.868Z" transform="translate(-454.385 -559.547)"/><path class="g" d="M412.535,360.015h-9.121a1.4,1.4,0,0,0-1.4,1.4v.512h-.1v1.144h.1v.8h-.1v.687h.1V373a1.4,1.4,0,0,0,1.4,1.4h9.121a1.4,1.4,0,0,0,1.4-1.4V361.412A1.4,1.4,0,0,0,412.535,360.015Z" transform="translate(-380.061 -331.126)"/><path class="c" d="M232.992,162.626l-4.626-2.423-6.389.991-1.322,5.838,3.29-.127.919-2.145v2.11l1.518-.058.881-3.415.551,3.635,5.4-.11Z" transform="translate(-199.068 -144.53)"/><path class="d" d="M356.176,448.428a2.4,2.4,0,0,0,.864.859,1.689,1.689,0,0,0,1.484-.04,2.613,2.613,0,0,0,1.071-1.074,5.346,5.346,0,0,0,.544-2.969c-.063-1.018-.28-2.021-.376-3.037-.07-.738-.076-1.481-.081-2.223a.739.739,0,0,1,.093-.45.883.883,0,0,1,.5-.248,3.988,3.988,0,0,0,2.171-2.195,3.8,3.8,0,0,0,.541-2.021,1.587,1.587,0,0,0-1.272-1.485,2.039,2.039,0,0,0-1.533.715,6.575,6.575,0,0,0-1.925,3.847,14.9,14.9,0,0,1-.26,2.146c-.416,1.484-1.717,2.394-2.365,3.729A4.5,4.5,0,0,0,356.176,448.428Z" transform="translate(-337.966 -397.458)"/><path class="d" d="M504.455,401.947a2.8,2.8,0,0,1-1.573,1.511,2.172,2.172,0,0,1-1.367.084,1.516,1.516,0,0,1-1-.9,2.413,2.413,0,0,1-.113-.673,6.933,6.933,0,0,1,.324-2.967c.14-.36.329-.7.44-1.073a5.39,5.39,0,0,0,.166-1.31l.119-2.731a1.775,1.775,0,0,0-.041-.592,1.871,1.871,0,0,0-.827-.887,5.438,5.438,0,0,1-2.023-2.147,1.506,1.506,0,0,1-.14-.89,1.479,1.479,0,0,1,1.2-1.012,2.684,2.684,0,0,1,3.217,2.163c.054.308.053.623.084.934.066.66.276,1.3.407,1.947.323,1.6.156,3.258.475,4.86C504.069,399.608,505.075,400.482,504.455,401.947Z" transform="translate(-467.102 -356.647)"/><circle class="e" cx="1.144" cy="1.144" r="1.144" transform="translate(26.891 32.743)"/><path class="g" d="M902.3,423.632a6.13,6.13,0,1,0,6.13,6.13A6.13,6.13,0,0,0,902.3,423.632Zm3.03,4.576c0,.066,0,.134,0,.2a4.421,4.421,0,0,1-4.451,4.453,4.37,4.37,0,0,1-2.393-.707,3.142,3.142,0,0,0,2.315-.647,1.566,1.566,0,0,1-1.461-1.087,1.469,1.469,0,0,0,.294.029,1.574,1.574,0,0,0,.411-.055,1.565,1.565,0,0,1-1.254-1.534v-.019a1.527,1.527,0,0,0,.71.2,1.566,1.566,0,0,1-.486-2.089,4.43,4.43,0,0,0,3.223,1.635,1.53,1.53,0,0,1-.04-.357,1.563,1.563,0,0,1,2.7-1.069,3.107,3.107,0,0,0,.993-.379,1.569,1.569,0,0,1-.688.865,3.16,3.16,0,0,0,.9-.247A3.183,3.183,0,0,1,905.325,428.208Z" transform="translate(-825.957 -388.519)"/><circle class="g" cx="1.089" cy="1.089" r="1.089" transform="translate(73.278 16.972)"/><path class="g" d="M914.927,221.5H912.2a1.366,1.366,0,0,0-1.362,1.362v2.723a1.366,1.366,0,0,0,1.362,1.362h2.723a1.366,1.366,0,0,0,1.362-1.362v-2.723A1.366,1.366,0,0,0,914.927,221.5Zm-1.362,4.357a1.634,1.634,0,1,1,1.634-1.634A1.634,1.634,0,0,1,913.566,225.855Zm1.77-3a.408.408,0,1,1,.289-.119A.409.409,0,0,1,915.336,222.859Z" transform="translate(-839.198 -206.16)"/><path class="g" d="M878.367,183.859a6.463,6.463,0,1,0,6.463,6.463A6.463,6.463,0,0,0,878.367,183.859Zm3.338,7.767a1.912,1.912,0,0,1-1.906,1.906h-2.723a1.912,1.912,0,0,1-1.906-1.906V188.9A1.912,1.912,0,0,1,877.075,187H879.8a1.912,1.912,0,0,1,1.906,1.906Z" transform="translate(-804.069 -172.203)"/><path class="g" d="M611.359,64.718a6.359,6.359,0,1,0,6.359,6.359A6.359,6.359,0,0,0,611.359,64.718Zm2.005,3.848h-.814c-.556,0-.662.263-.662.65v.823h1.324l-.173,1.291h-1.151v3.505h-1.476V71.331h-1.058V70.039h1.058v-.955a1.682,1.682,0,0,1,1.815-1.766c.489,0,1.015.037,1.137.053Z" transform="translate(-563.276 -64.718)"/></svg>