<svg xmlns="http://www.w3.org/2000/svg" xmlns:xlink="http://www.w3.org/1999/xlink" width="96" height="70.468" viewBox="0 0 96 70.468"><defs><style>.a{fill:#3f3d56;}.b{fill:#a0616a;}.c{fill:#d0cde1;}.d{fill:#2f2e41;}.e{opacity:0.1;}.f{fill:#d73b5b;}.g{fill:#e6e6e6;}.h{fill:url(#a);}</style><linearGradient id="a" x1="0.5" x2="0.5" y2="1" gradientUnits="objectBoundingBox"><stop offset="0" stop-color="#f95e5b"/><stop offset="1" stop-color="#d0335b"/></linearGradient></defs><g transform="translate(-7.136)"><ellipse class="a" cx="29" cy="3" rx="29" ry="3" transform="translate(7.136 64.468)"/><path class="a" d="M395.759,650.6a6.451,6.451,0,0,1-.681-2.552,17.7,17.7,0,0,1,1.307-7.854,15.839,15.839,0,0,0-.628-12.606l.157-.091a13.913,13.913,0,0,1,1.313,3.718,16.223,16.223,0,0,1-.672,9.042c-2.578,6.934-.661,10.217-.642,10.249Z" transform="translate(-378.923 -585.326)"/><ellipse class="a" cx="0.5" cy="1" rx="0.5" ry="1" transform="translate(19.136 44.468)"/><circle class="a" cx="1" cy="1" r="1" transform="translate(15.136 53.468)"/><path class="a" d="M409.108,832.073s-1.178-2.9,2.355-5.073Z" transform="translate(-391.562 -766.754)"/><path class="a" d="M347.988,851.737s-.536-3.083-4.685-3.056Z" transform="translate(-331.89 -786.47)"/><path class="b" d="M611.84,317s.091,2.355-.453,2.9,2.718,2.446,2.718,2.446l1.9-2.99a4.262,4.262,0,0,1-.544-2.355Z" transform="translate(-575.63 -302.958)"/><path class="b" d="M305.5,683.5v2.265l2.808.181-.181-2.446Z" transform="translate(-275.134 -621.578)"/><path class="b" d="M447.308,683.5v2.265l-2.808.181.181-2.446Z" transform="translate(-401.541 -621.578)"/><path class="c" d="M549.1,563.51s-1.45,5.254-.544,9.422c0,0,0,1.812.362,2.174s.453.362.181.544-.815.634-.544.906.362.634.181.725a.415.415,0,0,0-.181.634c.181.363-.906,10.056-.906,10.056s-1.087,1.178,0,1.268,2.9.544,3.08-.181,1.631-10.962,1.631-10.962.181-.272.544-.725.181-.634.181-.725,1.9-8.7,1.9-8.7,2.808,9.784,3.08,9.965.362.181.362.453-.181.453,0,.725a4.7,4.7,0,0,1,.272.453s.453,10.147,1.359,10.147,3.624-.181,3.352-1-.634-.634-.634-.634.634-8.335-.906-10.781v-1.993c0-.181.091-.272,0-.453s.272-10.962-1.45-11.6S549.1,563.51,549.1,563.51Z" transform="translate(-517.284 -526.683)"/><path class="d" d="M516.673,856.225s-.453-.725-1.087-.725-1.087.725-1.087.725l-1.631,2.265s-2.355,1.449-1.45,2.265,3.352.362,3.352.362,1.993-1.45,2.265-1.54a5.745,5.745,0,0,0,1.087-.634c.091-.091-.181-3.352-.453-3.125S517.216,856.768,516.673,856.225Z" transform="translate(-484.586 -792.672)"/><path class="d" d="M688.771,856.225s.453-.725,1.087-.725,1.087.725,1.087.725l1.631,2.265s2.355,1.449,1.449,2.265-3.352.362-3.352.362-1.993-1.45-2.265-1.54a5.751,5.751,0,0,1-1.087-.634c-.091-.091.181-3.352.453-3.125S688.228,856.768,688.771,856.225Z" transform="translate(-644.725 -792.672)"/><circle class="b" cx="3.261" cy="3.261" r="3.261" transform="translate(34.533 8.833)"/><path class="a" d="M567.708,335.27s-.609.034-.894-.889L562,337.9l1.993,5.345a16.516,16.516,0,0,1,0,3.714,7.28,7.28,0,0,0-.453,1.812c0,.362-1.9,6.432-1.178,6.7s11.777,1.359,12.049-.453-.906-13.77-.906-13.77l1.9-4.62-4.625-3.026S570.335,335.451,567.708,335.27Z" transform="translate(-530.774 -318.057)"/><path class="b" d="M540.767,444.5l-.362,2.808a14.443,14.443,0,0,0-1.087,6.976l-.091,2.627s-.906,4.53.906,4.711.634-4.983.634-4.983l1-2.446,1.02-5.441.52-3.8Z" transform="translate(-509.857 -418.907)"/><path class="a" d="M556.87,379.5l-1.314.136s-.861,6.387-.589,6.387a26.835,26.835,0,0,0,3.443.544C558.5,386.385,556.87,379.5,556.87,379.5Z" transform="translate(-524.33 -359.796)"/><path class="d" d="M595.285,239.553l-.588-.214a4.18,4.18,0,0,1,2.94-1.122l-.481-.481a2.182,2.182,0,0,1,2.245.695,9.549,9.549,0,0,1,1.617,2.065h.63l-.263.526.92.526-.944-.094a2.651,2.651,0,0,1-.089,1.361l-.214.588a16.954,16.954,0,0,1-.855-1.924v.534s-.588-.481-.588-.8l-.321.374-.16-.588-1.977.588.321-.481-1.229.16.481-.588s-1.39.695-1.443,1.283a3.074,3.074,0,0,1-.748,1.336l-.321-.534S593.735,240.355,595.285,239.553Z" transform="translate(-560.007 -230.802)"/><ellipse class="a" cx="6.047" cy="8.607" rx="6.047" ry="8.607" transform="translate(37.795 38.005)"/><ellipse class="e" cx="6.047" cy="8.607" rx="6.047" ry="8.607" transform="translate(37.795 38.005)"/><ellipse class="a" cx="6.047" cy="8.607" rx="6.047" ry="8.607" transform="translate(38.61 38.005)"/><ellipse class="e" cx="5.187" cy="7.382" rx="5.187" ry="7.382" transform="translate(39.471 39.23)"/><path class="f" d="M698.155,645.044v-.866A2.012,2.012,0,0,1,697,643.8l.181-.575a1.847,1.847,0,0,0,1.088.369.833.833,0,0,0,.9-.841c0-.472-.295-.764-.853-1.021-.77-.343-1.246-.738-1.246-1.484a1.349,1.349,0,0,1,1.14-1.381V638h.468v.832a1.838,1.838,0,0,1,.982.3l-.189.566a1.669,1.669,0,0,0-.952-.292.725.725,0,0,0-.8.738c0,.446.279.669.936.978a1.637,1.637,0,0,1,1.171,1.57,1.436,1.436,0,0,1-1.193,1.458v.892Z" transform="translate(-653.543 -594.877)"/><path class="b" d="M672.683,433.5v3.714s.091,4.53-1.449,7.338l-.815,1.812s-1.631,5.255-2.627,3.624,1.087-4.349,1.087-4.349l1.179-6.9-.726-4.61Z" transform="translate(-626.735 -408.903)"/><path class="a" d="M683.225,364.5l1.767.227s2.129,6.478,1.585,6.749a26.444,26.444,0,0,1-4.077.453Z" transform="translate(-640.357 -346.154)"/><path class="g" d="M845.61,597h-1.087v-.181h1.087Zm-2.174,0h-1.087v-.181h1.087Zm-2.174,0h-1.087v-.181h1.087Zm-2.174,0H838v-.181h1.087Z" transform="translate(-781.769 -557.422)"/><path class="g" d="M860.83,502.181h-1.087V502h1.087Zm-2.174,0h-1.087V502h1.087Zm-2.174,0h-1.087V502h1.087Zm-2.174,0H853.22V502h1.087Zm-2.174,0h-1.087V502h1.087Zm-2.174,0h-1.087V502h1.087Zm-2.174,0H846.7V502h1.087Zm-2.174,0h-1.087V502h1.087Zm-2.174,0h-1.087V502h1.087Zm-2.174,0h-1.087V502h1.087Zm-2.174,0H838V502h1.087Z" transform="translate(-781.769 -471.198)"/><path class="g" d="M882.573,443.181h-1.087V443h1.087Zm-2.174,0h-1.087V443H880.4Zm-2.174,0h-1.087V443h1.087Zm-2.174,0h-1.087V443h1.087Zm-2.174,0h-1.087V443h1.087Zm-2.174,0h-1.087V443H871.7Zm-2.174,0H868.44V443h1.087Zm-2.174,0h-1.087V443h1.087Zm-2.174,0h-1.087V443h1.087Zm-2.174,0h-1.087V443H863Zm-2.174,0h-1.087V443h1.087Zm-2.174,0h-1.087V443h1.087Zm-2.174,0h-1.087V443h1.087Zm-2.174,0H853.22V443h1.087Zm-2.174,0h-1.087V443h1.087Zm-2.174,0h-1.087V443h1.087Zm-2.174,0H846.7V443h1.087Zm-2.174,0h-1.087V443h1.087Zm-2.174,0h-1.087V443h1.087Zm-2.174,0h-1.087V443h1.087Zm-2.174,0H838V443h1.087Z" transform="translate(-781.769 -417.543)"/><rect class="g" width="0.181" height="0.544" transform="translate(64.294 0.07)"/><path class="g" d="M927.181,220.132H927v-1.069h.181Zm0-2.138H927v-1.069h.181Zm0-2.138H927v-1.069h.181Zm0-2.138H927v-1.069h.181Zm0-2.138H927V210.51h.181Zm0-2.138H927v-1.069h.181Zm0-2.138H927v-1.069h.181Zm0-2.138H927V204.1h.181Zm0-2.138H927v-1.069h.181Zm0-2.138H927V199.82h.181Zm0-2.138H927v-1.069h.181Zm0-2.138H927v-1.069h.181Zm0-2.138H927v-1.069h.181Zm0-2.138H927v-1.069h.181Zm0-2.138H927v-1.069h.181Zm0-2.138H927v-1.069h.181Zm0-2.138H927v-1.069h.181Zm0-2.138H927v-1.069h.181Zm0-2.138H927v-1.069h.181Z" transform="translate(-862.706 -178.893)"/><rect class="g" transform="translate(65.136 42.468)"/><rect class="g" width="0.181" height="0.544" transform="translate(80.057 0.07)"/><path class="g" d="M1101.181,211.978H1101V210.9h.181Zm0-2.158H1101v-1.079h.181Zm0-2.158H1101v-1.079h.181Zm0-2.158H1101v-1.079h.181Zm0-2.158H1101v-1.079h.181Zm0-2.158H1101v-1.079h.181Zm0-2.158H1101V197.95h.181Zm0-2.158H1101v-1.079h.181Zm0-2.158H1101v-1.079h.181Zm0-2.158H1101v-1.079h.181Zm0-2.158H1101v-1.079h.181Zm0-2.158H1101V187.16h.181Zm0-2.158H1101V185h.181Zm0-2.158H1101v-1.079h.181Zm0-2.158H1101v-1.079h.181Z" transform="translate(-1020.943 -178.993)"/><rect class="g" width="1" height="1" transform="translate(80.136 33.468)"/><path class="h" d="M591,336.558l8.244-8.244,3.76,3.76,11.913-11.913,7.7,7.7L636.479,314v22.558Z" transform="translate(-534.769 -285.553)"/><path class="a" d="M882.66,213.1H837V162h45.66Zm-45.479-.181h45.3V162.181h-45.3Z" transform="translate(-780.86 -162)"/><ellipse class="a" cx="1.5" cy="1" rx="1.5" ry="1" transform="translate(63.136 38.468)"/><ellipse class="a" cx="1" cy="0.5" rx="1" ry="0.5" transform="translate(79.136 30.468)"/><ellipse class="a" cx="1.5" cy="2" rx="1.5" ry="2" transform="translate(100.136 23.468)"/><path class="a" d="M915.617,242a5.471,5.471,0,0,1-1.757.229l.683.454-32.137,23.8.108.146,32.137-23.8.235.786A5.476,5.476,0,0,1,915.617,242Z" transform="translate(-822.152 -234.752)"/></g></svg>