<svg xmlns="http://www.w3.org/2000/svg" xmlns:xlink="http://www.w3.org/1999/xlink" width="64.903" height="79.922" viewBox="0 0 64.903 79.922"><defs><style>.a{fill:#3f3d56;}.b{fill:#ffb9b9;}.c{opacity:0.1;}.d{fill:#575a89;}.e{fill:#2f2e41;}.f{fill:url(#a);}.g{fill:#f2f2f2;}.h,.i{fill:none;stroke:#3f3d56;stroke-miterlimit:10;}.i{stroke-width:2px;}.j{fill:url(#b);}.k{fill:#6c63ff;}</style><linearGradient id="a" x1="0.5" x2="0.5" y2="1" gradientUnits="objectBoundingBox"><stop offset="0" stop-color="#f95f5b"/><stop offset="1" stop-color="#cf325b"/></linearGradient><linearGradient id="b" x1="0.5" x2="0.5" y2="1" gradientUnits="objectBoundingBox"><stop offset="0" stop-color="#f85e5b"/><stop offset="1" stop-color="#d0335b"/></linearGradient></defs><g transform="translate(-196.381 -29.644)"><ellipse class="a" cx="15.291" cy="1.984" rx="15.291" ry="1.984" transform="translate(230.702 105.598)"/><path class="b" d="M924.718,172.161s-.432,3.209.679,3.58.8,3.209.8,3.209l-3.333,2.53-2.962.247-.741-3.826.432-.987a3.719,3.719,0,0,0,.494-4.012C918.917,170.865,924.718,172.161,924.718,172.161Z" transform="translate(-683.379 -135.524)"/><path class="c" d="M924.718,172.161s-.432,3.209.679,3.58.8,3.209.8,3.209l-3.333,2.53-2.962.247-.741-3.826.432-.987a3.719,3.719,0,0,0,.494-4.012C918.917,170.865,924.718,172.161,924.718,172.161Z" transform="translate(-683.379 -135.524)"/><path class="d" d="M835.116,271.99l-3.888,9.134s-3.024-1.728-4.814-1.543-4.012-1.975-4.012-1.975l2.222-10.739,4.135-11.417,5.74,3.641Z" transform="translate(-596.863 -210.358)"/><path class="c" d="M835.116,271.99l-3.888,9.134s-3.024-1.728-4.814-1.543-4.012-1.975-4.012-1.975l2.222-10.739,4.135-11.417,5.74,3.641Z" transform="translate(-596.863 -210.358)"/><path class="d" d="M936.733,739.539V742.5h-2.777l.432-3.456Z" transform="translate(-692.37 -639.088)"/><path class="d" d="M1007.538,695.328l2.037,1.234-1.481,3.394-1.543-.185-1.481-2.1Z" transform="translate(-755.953 -599.999)"/><path class="e" d="M908.536,403.505l3.641,8.579s-1.3,9.5-1.234,10.307a2.9,2.9,0,0,1-.185,1.79,2.548,2.548,0,0,0-.247,1.913c.185.8.247,1.111.123,1.419s-.987,13.022-1.419,13.886.247,2.284-.185,2.407-3.641-.185-3.826-.926.617-2.53.185-3.086.062-20.551-.555-21.909-7.406-2.592-7.406-2.592-.617-3.95-.247-4.567a28.059,28.059,0,0,0,.864-4.505Z" transform="translate(-663.617 -342.738)"/><path class="e" d="M966.934,793.98s1.728-2.037,3.209,0c0,0,.123,2.407,1.173,2.9s.555,2.469-.926,2.53-3.394.309-3.456-.494.247-1.3-.309-1.543,0-1.666,0-1.666Z" transform="translate(-725.594 -691.06)"/><path class="e" d="M907.279,502.152s-.062,4.444-.494,5.061-.679.987-.432,1.666.617,1.913.432,2.16.185,1.543.185,1.543a16.357,16.357,0,0,1,6.974,7.036s2.284,3.765,2.962,3.826,1.481-.432,1.111.987-1.79,3.271-2.839,3.086-1.851-1.975-1.851-1.975-8.208-8.332-9.072-8.578-3.333-2.222-3.765-3.456-1.358-11.541-.926-12.22a8.077,8.077,0,0,1,2.037-1.6Z" transform="translate(-665.754 -428.733)"/><path class="e" d="M1054.687,727.6s3.826.123,3.888,1.049-1.6,6.419-1.358,7.715-1.913,4.258-3.333,3.641-.309-3.826-.309-3.826-1.42-4.382-1.173-4.444,2.716-.8,2.592-1.543S1054.687,727.6,1054.687,727.6Z" transform="translate(-802.485 -632.514)"/><circle class="b" cx="3.826" cy="3.826" r="3.826" transform="translate(234.643 32.286)"/><path class="f" d="M890.265,212.114s-2.1,2.222-3.641,1.851-2.345-3.024-2.345-3.024l-2.777-.494s-1.975,8.764-1.975,9.628,1.975,10.183,1.975,11.849-1.6,2.654.864,2.592,1.3-.864,4.875-.926,4.135.741,4.876-.555a10.329,10.329,0,0,1,1.852-2.284l-1.3-4.567-.185-12.9s-1.582-3.086-2.3-2.839C890.184,210.448,890.574,211.806,890.265,212.114Z" transform="translate(-647.938 -170.108)"/><path class="d" d="M969.246,205.411s3.291.361,4.216,1.04,3.518,1.173,3.456,1.666-3.024,7.529-3.024,7.529-1.358,5.554-.185,6.85,5.555,15.429,4.814,16.6-3.086-3.58-3.086-3.58-3.147-10.183-4.875-11.911-1.851-11.047-1.851-11.479S969.246,205.411,969.246,205.411Z" transform="translate(-727.679 -165.617)"/><path class="d" d="M822.889,203.242s-4.054-1.528-5.474-.911a9.939,9.939,0,0,1-2.283.741l-.494,6.048s-.185,8.7-1.79,10.8-2.654,10.862-2.407,11.726-.432,2.345.617,1.975,3.95-8.887,3.95-8.887,0-4.876,1.728-6.233,4.567-6.974,4.69-8.332a42.062,42.062,0,0,1,1.3-5.122Z" transform="translate(-586.136 -162.733)"/><path class="b" d="M998.5,384.67s-1.852,3.456-2.1,4.073-1.975,4.814-4.444,3.888,2.407-5.431,2.407-5.431l1.111-3.765S998.381,382.819,998.5,384.67Z" transform="translate(-747.846 -324.705)"/><path class="d" d="M763.649,207.072h-.617a1.421,1.421,0,0,0-1.358-.185c-.741.309-2.469-.123-2.469.062s-1.913-.555-2.715-.185a17.364,17.364,0,0,1-3.7.494s-1.172,2.962-.37,3.518,1.975.123,2.53.555,1.6-.062,1.975.494,1.728,1.543,2.037.926-.309-1.173.987-.494a8.667,8.667,0,0,0,3.333.679Z" transform="translate(-534.035 -166.733)"/><path class="e" d="M913.994,113.192a4.116,4.116,0,0,0-1.58.1,2.167,2.167,0,0,1-1.546-.178,2.444,2.444,0,0,1-.718-.917,1.057,1.057,0,0,1-.154-.4.943.943,0,0,1,.311-.675,5.107,5.107,0,0,1,3.14-1.51,5.425,5.425,0,0,1,2.867.35,3.751,3.751,0,0,1,2.011,2.018,5.726,5.726,0,0,1,.3,1.441,4.3,4.3,0,0,1,.02,1.091,4.689,4.689,0,0,1-.211.791l-.581,1.756a1.156,1.156,0,0,1-.229.453.4.4,0,0,1-.463.1,1.444,1.444,0,0,0,.021-.582.491.491,0,0,0-.388-.391c-.214-.023-.4.143-.6.215a.739.739,0,0,1-.933-.555,2.741,2.741,0,0,0-.054-.6c-.089-.221-.325-.337-.5-.5a1.158,1.158,0,0,1-.318-1.2c.048-.146.182-.213.155-.38C914.506,113.389,914.181,113.235,913.994,113.192Z" transform="translate(-675.18 -79.907)"/><rect class="g" width="26.258" height="28.799" transform="translate(196.381 46.749)"/><rect class="h" width="26.258" height="28.799" transform="translate(199.028 43.996)"/><path class="i" d="M556,227.5v22.023h21.281" transform="translate(-354.431 -181.704)"/><rect class="d" width="4.765" height="7.623" transform="translate(202.734 60.09)"/><rect class="a" width="4.765" height="12.811" transform="translate(209.616 54.901)"/><rect class="j" width="4.765" height="18.846" transform="translate(216.498 48.866)"/><rect class="k" width="1.416" height="1.416" transform="translate(201.252 69.546)"/><rect class="a" width="1.416" height="1.416" transform="translate(203.297 69.546)"/><rect class="d" width="1.416" height="1.416" transform="translate(205.341 69.546)"/><rect class="a" width="5.506" height="0.223" transform="translate(217.133 70.161)"/><rect class="a" width="5.506" height="0.223" transform="translate(217.133 70.83)"/><rect class="a" width="5.506" height="0.223" transform="translate(217.133 71.5)"/><path class="b" d="M747.938,212.267a1.967,1.967,0,0,1,1.84,2.189,3.083,3.083,0,0,1-1.8,2.762c-2.284.864-2.16-4.012-1.728-4.2A2.675,2.675,0,0,1,747.938,212.267Z" transform="translate(-528.549 -171.745)"/><path class="d" d="M1012.722,227.854l.679.33s1.481,3.024,1.543,3.456,1.049,2.037.679,2.469-.926,1.543-.555,1.975a7.521,7.521,0,0,1,1.234,2.777c0,.617-.926,2.283-.309,2.469s.432,2.592.309,2.777-1.728,3.209-1.728,3.209-.308-3.456-3.333-2.037c0,0-.247-1.728,0-1.851s.864-.864.37-.987-1.173-1.6-1.049-1.79.432-.432.123-.617a2.211,2.211,0,0,1-.494-1.419c.062-.185-.679-1.049-.679-1.049Z" transform="translate(-764.162 -185.684)"/></g></svg>