<svg xmlns="http://www.w3.org/2000/svg" xmlns:xlink="http://www.w3.org/1999/xlink" width="88.99" height="75.585" viewBox="0 0 88.99 75.585"><defs><style>.a{fill:#3f3d56;}.b{fill:#f2f2f2;}.c{fill:url(#a);}.d{fill:none;stroke:#3f3d56;stroke-miterlimit:10;stroke-width:2px;}.e{fill:#2f2e41;}.f{fill:#9f616a;}.g{opacity:0.1;}.h{fill:#d0cde1;}</style><linearGradient id="a" x1="0.5" x2="0.5" y2="1" gradientUnits="objectBoundingBox"><stop offset="0" stop-color="#f85e5b"/><stop offset="1" stop-color="#d0335b"/></linearGradient></defs><path class="a" d="M228.822,730.256l1.148-1.6-1.151,1.78,0,.184c-.08,0-.16-.005-.238-.011l.124-2.365v-.018l0,0,.012-.223-1.154-1.784,1.157,1.617,0,.047.093-1.787-.988-1.844,1,1.53.1-3.7v0l-.016,2.921.983-1.158-.987,1.409-.026,1.6.918-1.535-.922,1.771-.015.889,1.333-2.137-1.338,2.447Z" transform="translate(-222.242 -655.915)"/><path class="b" d="M554.862,202.178c0,18.532-8.414,33.151-18.776,33.555-13.513.526-31.173-12.947-18.776-33.555,9.553-15.88,8.406-33.555,18.776-33.555S554.862,183.646,554.862,202.178Z" transform="translate(-477.75 -160.693)"/><rect class="c" width="26.772" height="23.249" transform="translate(39.44 51.336)"/><line class="d" x2="88.99" transform="translate(0 74.585)"/><path class="a" d="M713.9,93.235a2.563,2.563,0,0,0-1.029,4.911,2.27,2.27,0,0,1,.045-.588l.33-1.4a.978.978,0,0,1-.082-.405c0-.38.22-.664.494-.664a.343.343,0,0,1,.346.384,5.55,5.55,0,0,1-.227.91.4.4,0,0,0,.4.493c.485,0,.813-.624.813-1.363a.959.959,0,0,0-1.066-.982,1.214,1.214,0,0,0-1.262,1.228.739.739,0,0,0,.169.5.125.125,0,0,1,.037.143c-.013.047-.04.16-.053.206a.088.088,0,0,1-.128.064.987.987,0,0,1-.525-.979A1.7,1.7,0,0,1,714,94.1a1.532,1.532,0,0,1,1.623,1.468c0,1.006-.56,1.756-1.383,1.756a.735.735,0,0,1-.626-.319s-.149.59-.181.7a2.127,2.127,0,0,1-.257.549,2.563,2.563,0,1,0,.728-5.022Z" transform="translate(-655.132 -93.235)"/><path class="a" d="M930.333,265.029a2.239,2.239,0,0,1-.636.175,1.112,1.112,0,0,0,.487-.613,2.2,2.2,0,0,1-.7.269,1.107,1.107,0,0,0-1.917.757,1.085,1.085,0,0,0,.029.253,3.139,3.139,0,0,1-2.284-1.159,1.11,1.11,0,0,0,.344,1.481,1.081,1.081,0,0,1-.5-.138v.014a1.109,1.109,0,0,0,.889,1.087,1.113,1.113,0,0,1-.292.039,1.046,1.046,0,0,1-.208-.021,1.109,1.109,0,0,0,1.035.77,2.221,2.221,0,0,1-1.376.475,2.245,2.245,0,0,1-.264-.016,3.1,3.1,0,0,0,1.7.5,3.133,3.133,0,0,0,3.155-3.156c0-.048,0-.1,0-.143A2.254,2.254,0,0,0,930.333,265.029Z" transform="translate(-846.26 -246.493)"/><path class="a" d="M535.6,124.252H531.69a.243.243,0,0,0-.243.243V128.4a.243.243,0,0,0,.243.243h1.954v-1.739h-.525v-.641h.525v-.474a.835.835,0,0,1,.9-.876c.243,0,.5.018.564.026v.593h-.4c-.276,0-.328.13-.328.323v.408h.657l-.086.641h-.571v1.739H535.6a.243.243,0,0,0,.243-.243v-3.909a.243.243,0,0,0-.243-.243Z" transform="translate(-494.163 -120.989)"/><path class="a" d="M549.122,275.813a.918.918,0,0,1,.915.915v1.831a.918.918,0,0,1-.915.915h-1.831a.918.918,0,0,1-.915-.915v-1.831a.918.918,0,0,1,.915-.915h1.831m0-.366h-1.831a1.285,1.285,0,0,0-1.282,1.282v1.831a1.285,1.285,0,0,0,1.282,1.281h1.831a1.285,1.285,0,0,0,1.282-1.281v-1.831A1.285,1.285,0,0,0,549.122,275.447Z" transform="translate(-507.194 -256.28)"/><path class="a" d="M558.741,282.958a.274.274,0,1,1,.194-.08A.275.275,0,0,1,558.741,282.958Zm-1.19.183a.732.732,0,1,1-.732.732.732.732,0,0,1,.732-.732m0-.366a1.1,1.1,0,1,0,1.1,1.1,1.1,1.1,0,0,0-1.1-1.1Z" transform="translate(-516.538 -262.51)"/><path class="a" d="M845.195,103.744h-3.666a.358.358,0,0,0-.375.342v3.674a.387.387,0,0,0,.375.376h3.665a.367.367,0,0,0,.352-.376v-3.674a.337.337,0,0,0-.351-.342Zm-2.68,3.661h-.629v-1.957h.629Zm-.293-2.254h0a.342.342,0,1,1,.344-.343A.342.342,0,0,1,842.217,105.152Zm2.593,2.254h-.629v-1.07c0-.256-.091-.431-.319-.431a.344.344,0,0,0-.323.232.421.421,0,0,0-.022.154v1.114h-.629v-1.957h.629v.272a.637.637,0,0,1,.568-.318c.413,0,.725.272.725.859Z" transform="translate(-771.292 -102.638)"/><path class="e" d="M699.656,361.354a42.139,42.139,0,0,1,5.19.389c.736.268,1.065,2.182,1.065,2.182l-3.458,1.087-2.587-.147-1.947.138,1.087-2.847Z" transform="translate(-643.123 -333.151)"/><path class="f" d="M712.528,347.458a2.414,2.414,0,0,1-.357,1.933c-.65.8,2.8,3.657,2.8,3.657l1.818-.312s-.4-3.478.138-4.359S712.528,347.458,712.528,347.458Z" transform="translate(-655.803 -320.717)"/><path class="g" d="M712.528,347.458a2.414,2.414,0,0,1-.357,1.933c-.65.8,2.8,3.657,2.8,3.657l1.818-.312s-.4-3.478.138-4.359S712.528,347.458,712.528,347.458Z" transform="translate(-655.803 -320.717)"/><path class="f" d="M620.1,568.843l-4.012,5.32,2.738,1.6L622.6,569.6Z" transform="translate(-551.287 -509.008)"/><path class="e" d="M788.576,701.688s-1.477-1.716-1.411-1.334-1.051,3.629-.012,3.943,9.951,1.147,10.073.141-2.658-1.711-2.658-1.711-1.652-1.588-2.019-1.426S788.576,701.688,788.576,701.688Z" transform="translate(-722.573 -636.444)"/><path class="f" d="M645.673,613.647l3.2,5.459,2.419-1.4-3.231-4.469Z" transform="translate(-577.756 -548.732)"/><path class="e" d="M827.887,583.691l-.951,1.346s-4.534,6.3-4.052,6.8,2.487,2.43,3.506,2.057,4.643-6.808,4.643-6.808l-.945-3.778Z" transform="translate(-754.912 -531.763)"/><path class="e" d="M683.513,512.381a5.759,5.759,0,0,0,3.589,2.536,42.993,42.993,0,0,1,5.357,1.936c.1-.016.366-.161.432.221s.772,1.05.772,1.05,2.842,9.659,3.928,9.67,3.316-.767,3.363-1.071-3.324-10.168-3.357-10.359l-.395-2.3s4.457.712,4.873.837,4.113,2.15,4.113,2.15,3.769-2.717.244-5.461-9.586-4.756-9.586-4.756l-2.174-.612-1.895-.113-.279-1.07-4.487.259-4.683,1.987Z" transform="translate(-630.067 -461.726)"/><circle class="f" cx="3.496" cy="3.496" r="3.496" transform="translate(55.873 22.003)"/><path class="h" d="M692.992,361.741l.42-.072s.759,2.924,3.108,3.407c0,0,1.159-1.389,1.11-1.623s.918-1.484,1.432-.784-.126,13.026.307,13.248,1.359.456.613,1.274-3.71,1.918-4.366,1.539-2-3.6-2.578-4.68a35.632,35.632,0,0,1-1.509-4.765s-1.186-4.033-.456-4.946S692.992,361.741,692.992,361.741Z" transform="translate(-636.786 -333.433)"/><path class="e" d="M671.056,373.3a19.945,19.945,0,0,1-.4,2.553c-.171.685-.371,1.1-.6,1.08-.581-.043-.845.809-.982,1.792-.146,1.043-.146,2.232-.225,2.652-.106.555-.782.979-2.134.855a9.535,9.535,0,0,1-2.351-.577c-1.825-.663-1.771-6.044-1.465-10.036.187-2.447.467-4.374.467-4.374a21.735,21.735,0,0,1-.732-2.786,3.7,3.7,0,0,1-.053-.626c.027-.99,1.834-3.665,2.926-5.331a1.687,1.687,0,0,1,2.584-.444l-.519,1.566a5.338,5.338,0,0,1,.81,2.422c.006,1.181,1.926,2.034,2.615,2.606C671.433,365.008,671.422,369.8,671.056,373.3Z" transform="translate(-611.505 -329.812)"/><path class="e" d="M755.705,367.054s.126.149.7.076c.692-.087,1.643.152,1.864.813.405,1.211,1.548,6.138,1.548,6.138s.476,5.633.689,6.877.108,2.346.319,3-2.081-1.219-2.926-.975-1.388-2.914-1.281-4.016a9.936,9.936,0,0,0-.1-3.432c-.293-1.132.227-4.128.207-4.814S754.867,368.3,755.705,367.054Z" transform="translate(-694.636 -338.252)"/><path class="f" d="M773.464,533.479s3.7,2.019,4.055,4.893-4.95-2.783-4.95-2.783Z" transform="translate(-709.922 -487.171)"/><path class="f" d="M801.164,511.306s1.134,5.716,2.9,5.413-.987-5.742-.987-5.742Z" transform="translate(-735.508 -467.036)"/><path class="e" d="M845.139,744.013s-.9,1.042-1.129.884-.74,2-.275,2.412,2.256,1.09,2.276,1.776,4.823.55,5-.169a3.549,3.549,0,0,0-1.147-2.66,23.314,23.314,0,0,1-2.557-3.067A4.929,4.929,0,0,0,845.139,744.013Z" transform="translate(-773.434 -674.822)"/><path class="g" d="M674.907,433.54c-.858-.606-3.255-.756-5.383-.9-.933-.06-1.815-.119-2.493-.214-.653-.09-1.24-.687-1.761-1.576a21.955,21.955,0,0,1-1.921-5.316c.187-2.447.467-4.374.467-4.374a21.723,21.723,0,0,1-.732-2.786,1.491,1.491,0,0,1,.472-.425c2.257-.969,4.411,8.565,4.685,10.06,0,.025.008.048.012.068.133.77,1.566,1.429,2.851,1.69a3.045,3.045,0,0,0,1.867-.038c.891-.547,3.632,1.643,3.84,1.7S676.14,434.412,674.907,433.54Z" transform="translate(-611.955 -383.736)"/><path class="e" d="M658.2,412.374s-1.64.775-.92,4.395,2.173,9.774,4.393,10.082,6.642.238,7.875,1.109,2.113-2.038,1.9-2.1-2.949-2.252-3.84-1.7-4.5-.408-4.717-1.652S660.491,411.389,658.2,412.374Z" transform="translate(-606.594 -378.743)"/><path class="e" d="M779.946,396.457l1.8,4.183s.181-.091.392.563a4.637,4.637,0,0,0,.679,1.657,64.066,64.066,0,0,1,2.062,6.838c.049.287-2.27,1.277-2.788.479S779.946,396.457,779.946,396.457Z" transform="translate(-716.523 -364.562)"/><path class="e" d="M703.589,295.657c.134-.036.154-.214.158-.352a1.842,1.842,0,0,1,1.181-1.72,1.986,1.986,0,0,1,.837-.046,3.171,3.171,0,0,1,1.134.378,1.769,1.769,0,0,0,.576.261c.139.021.739.2.877.22.3.054.585.325.877.224s.34-.457.347-.752a3.67,3.67,0,0,0-.944-2.1,2.342,2.342,0,0,0-1.355-.645,9.022,9.022,0,0,0-1.773-.108,5.633,5.633,0,0,0-2.352.424,2.279,2.279,0,0,0-1.367,1.841c-.007.167.01.335,0,.5a7.389,7.389,0,0,1-.351,1.169,2.139,2.139,0,0,0,.3,1.709c.269.4.691.753.675,1.231l.582-.6a.478.478,0,0,0,.142-.584l-.206-.8a.726.726,0,0,1-.018-.448C703.126,294.906,703.365,295.716,703.589,295.657Z" transform="translate(-646.209 -270.207)"/><path class="b" d="M217.807,346.759c0,11.144-6.625,15.036-14.8,15.036s-14.8-3.891-14.8-15.036,14.8-25.322,14.8-25.322S217.807,335.614,217.807,346.759Z" transform="translate(-187.031 -297.433)"/><path class="a" d="M96.182,266.855l.152-9.327,6.307-11.539-6.283,10.076.068-4.194,4.347-8.348-4.329,7.238h0l.123-7.543,4.655-6.646-4.635,5.46.077-13.831-.481,18.309.039-.755-4.732-7.244,4.657,8.694L95.7,255.63l-.013-.224-5.456-7.623,5.439,8.413-.055,1.054-.01.016,0,.086-1.119,21.372H95.99l.179-11.039,5.426-8.392Z" transform="translate(-80.743 -204.198)"/></svg>