<svg xmlns="http://www.w3.org/2000/svg" xmlns:xlink="http://www.w3.org/1999/xlink" width="61.28" height="75.719" viewBox="0 0 61.28 75.719"><defs><style>.a{fill:#e8e8e8;}.b{fill:#6c63ff;opacity:0.3;}.c{fill:#3f3d56;}.d{fill:url(#a);}.e{fill:url(#b);}.f{fill:#ffb9b9;}.g{fill:#2f2e41;}</style><linearGradient id="a" x1="0.5" x2="0.5" y2="1" gradientUnits="objectBoundingBox"><stop offset="0" stop-color="#d0335b"/><stop offset="1" stop-color="#f95f5b"/></linearGradient><linearGradient id="b" x1="0.5" x2="0.5" y2="1" gradientUnits="objectBoundingBox"><stop offset="0" stop-color="#f95f5b"/><stop offset="1" stop-color="#d0335b"/></linearGradient></defs><g transform="translate(-0.103 -16.529)"><rect class="a" width="48.828" height="53.902" transform="translate(12.554 16.529)"/><rect class="b" width="31.289" height="38.419" transform="translate(21.92 27.223)"/><rect class="c" width="31.289" height="38.419" transform="translate(23.942 25.147)"/><path class="d" d="M366.626,277.009c0,7.462-4.436,10.067-9.908,10.067s-9.908-2.605-9.908-10.067,9.908-16.954,9.908-16.954S366.626,269.547,366.626,277.009Z" transform="translate(-315.866 -230.618)"/><path class="c" d="M346.58,236.184l.1-6.245,4.223-7.725L346.7,228.96l.046-2.808,2.91-5.589-2.9,4.846h0l.082-5.05,3.117-4.45-3.1,3.656.051-9.26-.322,12.258.026-.506-3.169-4.85,3.118,5.821-.3,5.64-.009-.15-3.653-5.1,3.642,5.633-.037.705-.007.011,0,.058-.749,14.309h1l.12-7.391,3.633-5.619Z" transform="translate(-306.088 -180.868)"/><ellipse class="c" cx="13.942" cy="1.809" rx="13.942" ry="1.809" transform="translate(0.103 88.63)"/><path class="e" d="M122.235,362.626l-.463,1.1.521,7.12s-.289.405,0,.695.232.405.232.405-.463,0-.232.347a1.11,1.11,0,0,1,.232.521l-.116.347a1.084,1.084,0,0,1,.232.521c0,.232,1.505,7.352,1.505,7.352l1.447-2.837-.81-11.288Z" transform="translate(-114.776 -322.273)"/><path class="f" d="M263.583,529.983s2.547,1.876,2.637,3.376-3.283-2.234-3.306-2.655S263.583,529.983,263.583,529.983Z" transform="translate(-240.896 -471.819)"/><path class="g" d="M110.974,796.69l-.637,2.084s-.926,2.026.347,2.315a3.213,3.213,0,0,0,2.489-.81V798.89l.463-2.2Z" transform="translate(-104.268 -710.142)"/><path class="g" d="M216.41,796.69s-.289,3.936.347,4.168,2.894.289,2.952,0,.753-.579.232-.984-.868-2.779-.868-2.779Z" transform="translate(-199.284 -710.142)"/><path class="g" d="M118.494,445.018v1.737a34.882,34.882,0,0,0-2.6,10.3c-.695,6.31-3.068,25.529-2.489,25.876s6.831.579,7,.116.347-14.009.347-14.009l2.142-9.552a23.245,23.245,0,0,0,.753,3.994c.347.579-.579,19.393,0,19.682s8.394.81,8.278-.116S129.2,457,129.2,457s-1.331-11.867-1.737-11.983a31.132,31.132,0,0,0-4.689-.116C122.2,445.018,118.494,445.018,118.494,445.018Z" transform="translate(-107.214 -395.75)"/><circle class="f" cx="3.3" cy="3.3" r="3.3" transform="translate(12.38 28.312)"/><path class="f" d="M163.229,295.377s-1.679,2.605-1.274,3.3-4.284-.695-4.284-.695,2.837-3.473,2.779-3.879S163.229,295.377,163.229,295.377Z" transform="translate(-146.855 -260.987)"/><path class="e" d="M134.623,319.714a20.479,20.479,0,0,1-3.473-1.389,5.57,5.57,0,0,1-.695-.868s-3.7-.521-3.821-.521a13.435,13.435,0,0,0-1.216,1.274c-.232.232-3.184,1.795-3.184,2.2s-.463,2.489-.463,2.489a10.96,10.96,0,0,0,1.679,2.6c.637.463.81.347.868,1.1a5.825,5.825,0,0,0,.868,1.968,5.091,5.091,0,0,1,.405,1.737c-.116.405-.637.753.579.637s7.236.232,7.236-.405-1.158-6.715-1.158-6.715Z" transform="translate(-114.776 -281.445)"/><path class="e" d="M218.582,343.16l1.1-.116s.405.232.463,2.489.058,7.7.463,8.162,2.084,7.641,2.084,7.641.463.116.463.521.521.753.289,1.216.232.347-.058.637-1.679.868-1.737.521.174-.405-.058-.521-.232-.174-.289-.579-.579-.81-.521-.984-2.547-5.21-2.547-5.384-.174-.81-.405-.926-.579-.232-.405-.521-.463-8.973-.463-8.973Z" transform="translate(-199.835 -304.775)"/><path class="g" d="M141.223,248.7a4.367,4.367,0,0,0-4.058-1.355,3.617,3.617,0,0,0-2.8,3.109,4.982,4.982,0,0,1-.083.911c-.133.5-.527.89-.666,1.384-.093.331-.066.688-.164,1.018a4.264,4.264,0,0,1-1.177,1.475,1.492,1.492,0,0,0-.377.617,2.326,2.326,0,0,0-.029.628,4.37,4.37,0,0,1-1.171,3.048,7.52,7.52,0,0,1,1.458-.848,2.266,2.266,0,0,0,.622,2.34,1.978,1.978,0,0,0,2.371.154,3.619,3.619,0,0,0,.939-1.183l.971-1.657a2.551,2.551,0,0,1,.64-.813c.223-.163.494-.249.719-.41a1.941,1.941,0,0,0,.613-1.887,19.807,19.807,0,0,0-.593-2,1.934,1.934,0,0,1,.131-1.594c.419-.6,1.281-.675,1.851-1.134a2.571,2.571,0,0,0,.464-.6c.142-.2.178-.128.4-.137C141.887,249.737,141.447,248.938,141.223,248.7Z" transform="translate(-122.753 -219.176)"/><ellipse class="f" cx="0.266" cy="0.639" rx="0.266" ry="0.639" transform="translate(15.321 32.118)"/></g></svg>