<svg xmlns="http://www.w3.org/2000/svg" xmlns:xlink="http://www.w3.org/1999/xlink" width="99.226" height="62.297" viewBox="0 0 99.226 62.297"><defs><style>.a{fill:#f2f2f2;}.b{fill:#3f3d56;}.c,.f{opacity:0.2;}.d{fill:#cbceda;}.e,.f{fill:#6c63ff;}.g{fill:#a0616a;}.h{opacity:0.1;}.i{fill:#3c354c;}.j{fill:#ffc1c7;}.k{fill:url(#a);}.l{fill:#656380;}</style><linearGradient id="a" x1="0.5" x2="0.5" y2="1" gradientUnits="objectBoundingBox"><stop offset="0" stop-color="#f0585b"/><stop offset="1" stop-color="#d3385b"/></linearGradient></defs><g transform="translate(0.023 -0.05)"><path class="a" d="M26.65,255.579l-.527-.328c-.05-.031-.1-.065-.15-.1a5.016,5.016,0,0,0,.507-9.772l.026,2.066L25.37,245.2h-.014a5.017,5.017,0,0,0-5.244,4.776c-.005.1,0,.19,0,.285a6,6,0,0,1-.991-1.464,8.578,8.578,0,0,1-.452-3.762c.075-2.924.2-5.872.366-8.81a5.015,5.015,0,0,0,4.454-4.746c.007-.153,0-.3,0-.455a.721.721,0,0,0-.006-.112c-.01-.146-.023-.29-.046-.432a.382.382,0,0,0-.013-.069c-.02-.121-.045-.24-.074-.357-.011-.044-.022-.088-.034-.132-.035-.128-.074-.251-.119-.379-.015-.041-.032-.084-.049-.122-.035-.091-.074-.182-.115-.271-.022-.047-.043-.094-.065-.14-.007-.012-.011-.024-.018-.036h0a5.014,5.014,0,0,0-5.889-2.544l.034,2.69L15.974,226.9a4.992,4.992,0,0,0-2.392,5.406h-.01c.008.036.018.07.027.106.016.066.033.132.051.2q.036.126.078.251c.021.062.041.123.065.184.034.089.073.175.111.261.023.05.043.1.067.152q.1.194.208.38c.026.044.055.084.084.127.054.084.107.168.168.246.036.049.075.1.112.145.055.07.111.138.168.2.041.048.084.094.127.139.062.065.125.128.19.189.044.041.084.084.132.122.074.066.151.128.229.189.039.031.078.063.118.093q.178.126.368.251c.023.014.049.026.073.04.106.062.214.121.324.175.048.023.1.044.145.066.09.04.182.08.276.116l.168.059c.092.031.186.06.281.084.055.015.111.031.168.044.1.024.207.044.313.063l.02,0q-.1,1.859-.184,3.72a5.013,5.013,0,0,0-6.961-2.179l.887,2.43-1.824-1.751a5,5,0,0,0-1.624,3.465,4.9,4.9,0,0,0,.127,1.382,5.014,5.014,0,0,0,9.222,1.366c0,.126-.008.251-.012.378a9.945,9.945,0,0,0,.574,4.37,8.847,8.847,0,0,0,1.843,2.491c.455.464.927.914,1.41,1.349a5.036,5.036,0,0,0,1.812,1.508c.794.612,1.617,1.187,2.468,1.719l.531.33c.478.3.967.6,1.446.916-.084-.008-.168-.018-.251-.022a5.018,5.018,0,0,0-4.939,3.268l3.134,2.55-3.447-.8a5.018,5.018,0,0,0,7.2,4.511l-.233.289q-.231.287-.457.571c-2.04,2.583-2.607,5.035-1.6,6.9l1.228-.663c-.983-1.82.5-4.15,1.464-5.376q.221-.279.449-.561c1.3-1.619,2.779-3.454,2.743-5.7C32.59,259.261,29.3,257.219,26.65,255.579Z" transform="translate(-7.95 -213.781)"/><path class="a" d="M831.493,114.914l.657-.409c.063-.039.124-.084.187-.121a6.256,6.256,0,0,1-.633-12.191l-.033,2.578,1.417-2.8h.017a6.259,6.259,0,0,1,6.543,5.96c.006.12,0,.237,0,.355a7.453,7.453,0,0,0,1.237-1.826,10.676,10.676,0,0,0,.564-4.692c-.094-3.649-.251-7.326-.457-10.991a6.256,6.256,0,0,1-5.557-5.922c-.008-.191-.006-.38,0-.567a1.326,1.326,0,0,1,.008-.141c.012-.182.029-.362.056-.539,0-.029.012-.058.016-.084q.038-.226.093-.446l.041-.168c.044-.159.092-.318.148-.472.018-.052.04-.1.06-.153.045-.115.093-.227.144-.335.027-.058.053-.116.084-.174.007-.014.014-.03.021-.044h0a6.251,6.251,0,0,1,7.347-3.173l-.042,3.352,1.4-2.772A6.223,6.223,0,0,1,847.8,85.88h.007c-.01.044-.024.084-.034.132-.02.084-.041.168-.064.246-.029.1-.063.207-.1.309-.026.077-.051.154-.084.23-.043.111-.09.219-.139.326-.028.063-.054.127-.084.189-.08.162-.168.32-.259.473-.032.054-.069.106-.1.158-.067.1-.135.206-.208.306-.045.062-.093.121-.14.181-.069.084-.138.173-.212.256l-.158.173c-.076.084-.156.159-.236.235-.054.052-.108.1-.168.153-.093.084-.189.159-.287.235-.049.039-.1.08-.147.116-.148.109-.3.213-.459.309-.029.018-.061.033-.091.05q-.2.117-.4.219c-.06.029-.121.054-.181.084-.113.051-.227.1-.344.144-.069.026-.137.05-.206.074-.116.039-.232.075-.35.107-.069.019-.139.039-.21.056-.128.03-.258.055-.39.078l-.026.005q.131,2.32.23,4.641a6.253,6.253,0,0,1,8.684-2.715l-1.105,3.03,2.275-2.185a6.234,6.234,0,0,1,2.037,4.317,6.111,6.111,0,0,1-.158,1.724,6.256,6.256,0,0,1-11.507,1.7c0,.157.011.315.015.472a12.414,12.414,0,0,1-.716,5.452,10.955,10.955,0,0,1-2.305,3.108q-.852.87-1.76,1.683a6.28,6.28,0,0,1-2.262,1.879c-.991.763-2.018,1.481-3.079,2.145l-.663.411c-.6.369-1.206.748-1.8,1.142.106-.01.21-.022.317-.027a6.261,6.261,0,0,1,6.158,4.074l-3.91,3.184,4.3-1a6.262,6.262,0,0,1-8.973,5.636l.291.361c.192.239.384.477.571.713,2.544,3.222,3.252,6.285,1.992,8.614l-1.532-.827c1.226-2.271-.618-5.177-1.828-6.7-.183-.232-.371-.466-.56-.7-1.626-2.019-3.468-4.309-3.423-7.117C824.081,119.507,828.191,116.961,831.493,114.914Z" transform="translate(-755.651 -78.25)"/><ellipse class="b" cx="43.07" cy="2.304" rx="43.07" ry="2.304" transform="translate(5.869 57.738)"/><ellipse class="c" cx="38.545" cy="1.843" rx="38.545" ry="1.843" transform="translate(10.31 57.486)"/><path class="b" d="M228.476,244.854v44.288a.6.6,0,0,1-.6.6H155.843a.6.6,0,0,1-.6-.6V244.854a.6.6,0,0,1,.6-.6h72.026a.6.6,0,0,1,.607.6Z" transform="translate(-142.919 -230.295)"/><path class="d" d="M228.476,244.653v1.357H155.24v-1.357a.4.4,0,0,1,.4-.4h72.43A.4.4,0,0,1,228.476,244.653Z" transform="translate(-142.919 -230.295)"/><circle class="e" cx="0.419" cy="0.419" r="0.419" transform="translate(13.242 14.374)"/><circle class="e" cx="0.419" cy="0.419" r="0.419" transform="translate(14.415 14.374)"/><circle class="e" cx="0.419" cy="0.419" r="0.419" transform="translate(15.589 14.374)"/><rect class="f" width="22.289" height="1.173" transform="translate(37.795 20.114)"/><rect class="f" width="17.178" height="20.111" transform="translate(19.276 32.013)"/><rect class="f" width="17.178" height="20.111" transform="translate(40.309 32.013)"/><rect class="f" width="17.178" height="20.111" transform="translate(78.519 52.123) rotate(180)"/><path class="g" d="M314.6,565.471c-.051.3-.35.493-.633.611a1.713,1.713,0,0,0-.779.463,1.057,1.057,0,0,0,.084,1.163,4.011,4.011,0,0,0,1.021.978,1.842,1.842,0,0,0,.553.323,1.643,1.643,0,0,0,.471.05,8.593,8.593,0,0,0,1.523-.137,2.376,2.376,0,0,0,1.676-.912,2.73,2.73,0,0,0,.234-1.567,1.955,1.955,0,0,1-.833-.351,1.489,1.489,0,0,1-.733-.754c-.1-.361.062-.807-.185-1.089a.939.939,0,0,0-.7-.22q-.515-.013-1.03-.014c-.236,0-.764-.1-.959.059C313.95,564.359,314.667,565.088,314.6,565.471Z" transform="translate(-287.506 -523.237)"/><path class="h" d="M314.6,565.471c-.051.3-.35.493-.633.611a1.713,1.713,0,0,0-.779.463,1.057,1.057,0,0,0,.084,1.163,4.011,4.011,0,0,0,1.021.978,1.842,1.842,0,0,0,.553.323,1.643,1.643,0,0,0,.471.05,8.593,8.593,0,0,0,1.523-.137,2.376,2.376,0,0,0,1.676-.912,2.73,2.73,0,0,0,.234-1.567,1.955,1.955,0,0,1-.833-.351,1.489,1.489,0,0,1-.733-.754c-.1-.361.062-.807-.185-1.089a.939.939,0,0,0-.7-.22q-.515-.013-1.03-.014c-.236,0-.764-.1-.959.059C313.95,564.359,314.667,565.088,314.6,565.471Z" transform="translate(-287.506 -523.237)"/><circle class="g" cx="2.458" cy="2.458" r="2.458" transform="translate(25.81 37.146)"/><path class="a" d="M291.888,590.314a1.061,1.061,0,0,1-.138.419.713.713,0,0,1-.075.1,2.181,2.181,0,0,1-.514.358c-.5.306-1.067.7-1.161,1.286a4.4,4.4,0,0,1-.126.536c-.117.4-.271.791-.36,1.19a2.705,2.705,0,0,0-.075.706,2.147,2.147,0,0,0,.02.222,3.624,3.624,0,0,0,.711,1.554c.037.052.074.1.111.155l.024.033h-8.022c.013-.051.027-.1.039-.152,0-.008,0-.016.006-.024.08-.319.149-.64.2-.964a6.145,6.145,0,0,0,.075-.868.777.777,0,0,1,.266-.67c.014-.051.028-.1.041-.154a4.789,4.789,0,0,0-.012-2.315c-.012-.047-.025-.094-.038-.141-.006-.021-.013-.042-.018-.063a6.847,6.847,0,0,1-.178-.68,2.243,2.243,0,0,0-.206-.8,2.075,2.075,0,0,0-.625-.535,1.433,1.433,0,0,1-.3-.269h0a.66.66,0,0,1-.159-.385.57.57,0,0,1,.009-.126.964.964,0,0,1,.256-.457,2.79,2.79,0,0,1,2.053-.806h0c.118,0,.235,0,.352.01a.991.991,0,0,1,.395.089.6.6,0,0,1,.2.163.975.975,0,0,1,.168.317,1.757,1.757,0,0,1,.067.283,2.334,2.334,0,0,0,.215.876,1.4,1.4,0,0,0,1.475.452,3.326,3.326,0,0,0,2.282-1.676,3.081,3.081,0,0,1,.168-.3.761.761,0,0,1,.114-.135,4.677,4.677,0,0,1,2.042.922,2.228,2.228,0,0,1,.484.5A1.985,1.985,0,0,1,291.888,590.314Z" transform="translate(-258.485 -544.746)"/><path class="g" d="M301.586,608.691a2.358,2.358,0,0,1-.308.659,1.206,1.206,0,0,1-1.445.661h-.03l-.189-.011-1.082-.065a6.1,6.1,0,0,1-.855-.091c-.075-.015-.15-.034-.225-.054a6.327,6.327,0,0,0-1.262-.3c-.126-.008-.251,0-.38,0h-.035a1.9,1.9,0,0,1-.252-.017c-.137-.02-.272-.064-.412-.07a1.743,1.743,0,0,0-.981.393l-.084.052a3.783,3.783,0,0,1-.694.345H291.9a.482.482,0,0,1-.068-.063.517.517,0,0,1-.065-.09c0-.008-.008-.015-.012-.023a.764.764,0,0,1,0-.646,1.267,1.267,0,0,1,.212-.318,2.935,2.935,0,0,1,.307-.288,4.378,4.378,0,0,1,1.936-1.006c.05-.009.1-.018.152-.024a6.723,6.723,0,0,1,1.089-.036l.341.007,1.429.029h.039a4.027,4.027,0,0,0,1.7-.214,2.009,2.009,0,0,0,.193-.1.363.363,0,0,0,.133-.116.4.4,0,0,0,.039-.218l-.005-.754-.01-1.454h0q0-.535-.007-1.07a.735.735,0,0,1,.205-.609c.209-.262.717-1.188,1.078-1.2a.29.29,0,0,1,.18.05h0c.307.2.308.98.316,1.241q.013.433.038.866a29.405,29.405,0,0,0,.419,3.519A2.468,2.468,0,0,1,301.586,608.691Z" transform="translate(-267.931 -558.062)"/><path class="h" d="M301.586,608.691a2.358,2.358,0,0,1-.308.659,1.206,1.206,0,0,1-1.445.661h-.03l-.189-.011-1.082-.065a6.1,6.1,0,0,1-.855-.091c-.075-.015-.15-.034-.225-.054a6.327,6.327,0,0,0-1.262-.3c-.126-.008-.251,0-.38,0h-.035a1.9,1.9,0,0,1-.252-.017c-.137-.02-.272-.064-.412-.07a1.743,1.743,0,0,0-.981.393l-.084.052a3.783,3.783,0,0,1-.694.345H291.9a.482.482,0,0,1-.068-.063.517.517,0,0,1-.065-.09c0-.008-.008-.015-.012-.023a.764.764,0,0,1,0-.646,1.267,1.267,0,0,1,.212-.318,2.935,2.935,0,0,1,.307-.288,4.378,4.378,0,0,1,1.936-1.006c.05-.009.1-.018.152-.024a6.723,6.723,0,0,1,1.089-.036l.341.007,1.429.029h.039a4.027,4.027,0,0,0,1.7-.214,2.009,2.009,0,0,0,.193-.1.363.363,0,0,0,.133-.116.4.4,0,0,0,.039-.218l-.005-.754-.01-1.454h0q0-.535-.007-1.07a.735.735,0,0,1,.205-.609c.209-.262.717-1.188,1.078-1.2a.29.29,0,0,1,.18.05h0c.307.2.308.98.316,1.241q.013.433.038.866a29.405,29.405,0,0,0,.419,3.519A2.468,2.468,0,0,1,301.586,608.691Z" transform="translate(-267.931 -558.062)"/><path class="i" d="M303.331,502.26a.77.77,0,0,0-.564.27,1.311,1.311,0,0,0-.115.484,1.073,1.073,0,0,1-.412.659c-.176.13-.389.2-.571.324a.617.617,0,0,0-.318.538c.021.19.173.335.244.514a1.338,1.338,0,0,1-.168,1.013,1.185,1.185,0,0,0-.115,1.011c.175.328.627.452.754.8.158.419-.251.866-.2,1.312a.877.877,0,0,0,.773.683.626.626,0,0,0,.5-.109.659.659,0,0,0,.181-.483,10.375,10.375,0,0,0-.478-1.982,1.063,1.063,0,0,1,.061-.66c.065-.127.168-.23.225-.362.113-.274-.015-.6.106-.876a2.3,2.3,0,0,1,.237-.335.4.4,0,0,0,.069-.386,1.354,1.354,0,0,1,.5.566c.158-.032.154-.372.309-.323.044.014.069.06.1.1a.437.437,0,0,0,.464.122.912.912,0,0,0,.409-.294l.265.328a.3.3,0,0,1,.291-.184.7.7,0,0,1,.344.118,1.328,1.328,0,0,1,.687,1.47,6.113,6.113,0,0,1-.364.654.613.613,0,0,0,.039.7,1.4,1.4,0,0,1,.116.106c.132.155.049.391.088.587.07.359.493.5.85.587.251.057.551.1.727-.084.193-.2.106-.53-.01-.783a.949.949,0,0,1-.126-.793c.125-.248.491-.335.623-.594.168-.329-.128-.69-.246-1.041-.162-.479.018-1.017-.114-1.508a2.1,2.1,0,0,0-.37-.68,4.407,4.407,0,0,0-1.442-1.315,2.8,2.8,0,0,0-1.709-.262C304.425,502.216,303.877,502.179,303.331,502.26Z" transform="translate(-276.683 -466.554)"/><path class="a" d="M375.987,603.694a.2.2,0,0,1-.1-.133q-.279-.784-.523-1.58a.614.614,0,0,1-.039-.294.572.572,0,0,1,.225-.306,3.349,3.349,0,0,1,.918-.538c.241-.095.6-.263.838-.11.3.19-.02.67-.129.922a9.561,9.561,0,0,1-.5,1.006A5.8,5.8,0,0,1,375.987,603.694Z" transform="translate(-344.563 -556.85)"/><path class="g" d="M280.984,609.943a.506.506,0,0,1-.079.112.26.26,0,0,1-.03.03.357.357,0,0,1-.038.033h-1.457a3.773,3.773,0,0,1-.694-.345l-.084-.052a1.743,1.743,0,0,0-.981-.393c-.14.007-.275.05-.412.07a1.892,1.892,0,0,1-.251.017h-.035c-.127,0-.251-.006-.38,0a6.344,6.344,0,0,0-1.262.3c-.075.02-.149.039-.225.054a6.105,6.105,0,0,1-.855.091l-1.27.075h-.03a1.206,1.206,0,0,1-1.445-.661,2.36,2.36,0,0,1-.308-.659,2.454,2.454,0,0,1,.048-1.025,29.5,29.5,0,0,0,.455-4.386c.008-.262.009-1.04.318-1.242a.268.268,0,0,1,.116-.045h0a.3.3,0,0,1,.062,0c.36.015.869.941,1.078,1.2a.735.735,0,0,1,.205.609q0,.516-.007,1.034v.047q-.006,1.1-.014,2.2a.4.4,0,0,0,.039.218.237.237,0,0,0,.044.053.544.544,0,0,0,.09.063,3.544,3.544,0,0,0,1.889.313h.039l1.429-.029.341-.007a6.723,6.723,0,0,1,1.089.036c.05.007.1.015.152.024a3.945,3.945,0,0,1,1.533.692q.21.148.407.313a1.746,1.746,0,0,1,.519.607A.764.764,0,0,1,280.984,609.943Z" transform="translate(-249.081 -557.995)"/><path class="a" d="M283.471,603.694a.205.205,0,0,0,.1-.133q.279-.784.523-1.58a.625.625,0,0,0,.039-.294.572.572,0,0,0-.225-.306,3.335,3.335,0,0,0-.917-.538c-.241-.095-.6-.263-.838-.11-.3.19.019.67.129.922a9.387,9.387,0,0,0,.5,1.006A5.8,5.8,0,0,0,283.471,603.694Z" transform="translate(-259.081 -556.85)"/><path class="i" d="M818,496.229c.5-.121.886.7,1.388.606.276-.054.488-.38.768-.356.318.028.453.462.616.779a1.44,1.44,0,0,0,1.4.816.994.994,0,0,0,.052-.863,3.094,3.094,0,0,1-.225-.865c0-.4.216-.845.017-1.173-.153-.251-.467-.271-.7-.426a2.893,2.893,0,0,1-.458-.488,1.512,1.512,0,0,0-.933-.49,2.758,2.758,0,0,0-.888.094l-1.371.3a.381.381,0,0,0-.214.1.74.74,0,0,0-.111.281c-.13.426-.537.625-.87.861s-.648.7-.465,1.1c.1.225.349.365.374.618a.855.855,0,0,1-.274.579c-.566.709.7,1.078,1.005.6C817.453,497.765,817.284,496.4,818,496.229Z" transform="translate(-748.27 -458.897)"/><path class="g" d="M826.471,558.006a4.066,4.066,0,0,0-.369.455,1.046,1.046,0,0,0-.055.785,2.967,2.967,0,0,0,.358.721,4.192,4.192,0,0,0,.628.838,1.529,1.529,0,0,0,.922.457,2.171,2.171,0,0,0,1.071-.288,1.173,1.173,0,0,0,.386-.251,1.2,1.2,0,0,0,.188-.341l.291-.7a1.919,1.919,0,0,0,.168-.535,1.977,1.977,0,0,0-.168-.849l-.532-1.464a.5.5,0,0,0-.127-.222.482.482,0,0,0-.2-.084,5.7,5.7,0,0,0-1.028-.168,2.35,2.35,0,0,0-1.069.037c-.207.135-.121.478-.145.7A1.773,1.773,0,0,1,826.471,558.006Z" transform="translate(-757.469 -516.215)"/><path class="h" d="M826.471,558.006a4.066,4.066,0,0,0-.369.455,1.046,1.046,0,0,0-.055.785,2.967,2.967,0,0,0,.358.721,4.192,4.192,0,0,0,.628.838,1.529,1.529,0,0,0,.922.457,2.171,2.171,0,0,0,1.071-.288,1.173,1.173,0,0,0,.386-.251,1.2,1.2,0,0,0,.188-.341l.291-.7a1.919,1.919,0,0,0,.168-.535,1.977,1.977,0,0,0-.168-.849l-.532-1.464a.5.5,0,0,0-.127-.222.482.482,0,0,0-.2-.084,5.7,5.7,0,0,0-1.028-.168,2.35,2.35,0,0,0-1.069.037c-.207.135-.121.478-.145.7A1.773,1.773,0,0,1,826.471,558.006Z" transform="translate(-757.469 -516.215)"/><circle class="g" cx="2.321" cy="2.321" r="2.321" transform="translate(68.422 36.804)"/><path class="i" d="M784.746,582.952a4.65,4.65,0,0,1-.494,1.843c-.254.587-.576,1.166-.825,1.768-.02.049-.039.1-.059.147q-.64,1.654-1.133,3.359l-.024.084h-7.2c.328-1.257.61-2.514-.178-3.381-.024-.027-.049-.055-.072-.084-.515-.621-.747-1.468-1.359-2a1.51,1.51,0,0,1-.391-.394.715.715,0,0,1-.074-.327,2.2,2.2,0,0,1,.018-.3,3.112,3.112,0,0,1,.467-1.555,2.292,2.292,0,0,1,.532-.494,4.245,4.245,0,0,1,1.484-.663,4.357,4.357,0,0,0,1.751-.532,2.072,2.072,0,0,1,.335-.251l.034-.014a.349.349,0,0,1,.361.039.5.5,0,0,1,.121.251l.267.975a1,1,0,0,0,.2.439c.237.246.69.217.875.5.111.173.4-.028.528-.189a7.107,7.107,0,0,0,.792-1.252,2.007,2.007,0,0,1,.293-.488.663.663,0,0,1,.323-.2.436.436,0,0,1,.186,0,.875.875,0,0,1,.437.323,9.8,9.8,0,0,0,2.576,2.049.426.426,0,0,1,.189.156.323.323,0,0,1,.032.135A.25.25,0,0,1,784.746,582.952Z" transform="translate(-708.859 -538.031)"/><path class="i" d="M825.957,503.709c.388-.084.689.474,1.079.407.215-.035.38-.251.6-.239.247.018.353.31.479.523a1.159,1.159,0,0,0,1.089.549.588.588,0,0,0,.04-.58,1.854,1.854,0,0,1-.176-.581c0-.271.168-.569.013-.789-.119-.168-.363-.183-.542-.286a2.274,2.274,0,0,1-.356-.328,1.239,1.239,0,0,0-.725-.329,2.466,2.466,0,0,0-.69.063l-1.066.2a.315.315,0,0,0-.167.065.46.46,0,0,0-.084.189c-.1.287-.419.419-.676.579s-.5.473-.362.741c.084.152.271.245.291.419.018.152-.109.276-.213.389-.439.476.546.724.783.4C825.534,504.742,825.4,503.827,825.957,503.709Z" transform="translate(-755.98 -466.495)"/><path class="i" d="M897.195,612.739h-1.96c.032-.8-.295-1.618-.335-2.437a6.036,6.036,0,0,0-.051-.922,2.054,2.054,0,0,0-.063-.232c-.05-.155-.11-.308-.157-.463a5.356,5.356,0,0,1-.142-1.616q.013-.9.028-1.8c0-.156-.046-.385.1-.451.319-.147.651.145.944.335.176.117.377.209.548.335a1.024,1.024,0,0,1,.26.26,1.455,1.455,0,0,1,.173.452q.356,1.36.62,2.742a8.877,8.877,0,0,1,.168,1.215C897.376,611.019,897.2,611.884,897.195,612.739Z" transform="translate(-820.219 -560.615)"/><path class="i" d="M758.424,627.25a1.511,1.511,0,0,0-.162.642,1,1,0,0,0,.067.292h-1.776a6.536,6.536,0,0,1-.2-.922,6.922,6.922,0,0,1,.041-1.833,6.692,6.692,0,0,1,.307-1.388,14.172,14.172,0,0,1,.81-1.643c.065-.127.125-.269.194-.395.149-.276.342-.478.726-.293a2.857,2.857,0,0,1,1.1,3.01.025.025,0,0,1,0,.007,4.641,4.641,0,0,1-.283.693Q758.813,626.327,758.424,627.25Z" transform="translate(-693.621 -576.06)"/><path class="b" d="M582.737,507.478a.848.848,0,0,1,.448.38,3.572,3.572,0,0,1,.126.512c.11.354.44.587.645.9a2.44,2.44,0,0,1,.292,1.455,5.219,5.219,0,0,0,.042,1.5c.059.238.161.464.2.706.049.293.008.6.084.888a2.308,2.308,0,0,0,.374.715l.652.953a7.541,7.541,0,0,1-.861-.259,1.544,1.544,0,0,0,.465.7l-.471-.57a1.351,1.351,0,0,0-.351-.335,1.913,1.913,0,0,0-.571-.153,1.329,1.329,0,0,1-.929-.6c-.244-.448-.084-1.01-.224-1.5a5.513,5.513,0,0,0-.515-.985,7.681,7.681,0,0,1-.482-2.464,7.587,7.587,0,0,1-.132-1.062c0-.264.026-.765.3-.9A1.372,1.372,0,0,1,582.737,507.478Z" transform="translate(-533.489 -471.319)"/><path class="j" d="M556.327,563.877c.039.437.131.954.53,1.137a2.788,2.788,0,0,0,.732.106,1.534,1.534,0,0,1,1.056.846,3.7,3.7,0,0,1,.335,1.355,2.591,2.591,0,0,1-.237,1.706,1.969,1.969,0,0,1-1.165.763,3.251,3.251,0,0,1-2.712-.5,6.045,6.045,0,0,1-1-.986,5.362,5.362,0,0,1-1.47-2.632.326.326,0,0,1,.084-.322.352.352,0,0,1,.214-.043l.637.012a.587.587,0,0,0,.454-.122.553.553,0,0,0,.1-.419l-.049-1.848a.266.266,0,0,1,.042-.187.246.246,0,0,1,.147-.063,10.369,10.369,0,0,0,1.062-.1c.327-.09.838-.465,1.08-.08A3.65,3.65,0,0,1,556.327,563.877Z" transform="translate(-506.791 -521.725)"/><path class="h" d="M556.327,563.877c.039.437.131.954.53,1.137a2.788,2.788,0,0,0,.732.106,1.534,1.534,0,0,1,1.056.846,3.7,3.7,0,0,1,.335,1.355,2.591,2.591,0,0,1-.237,1.706,1.969,1.969,0,0,1-1.165.763,3.251,3.251,0,0,1-2.712-.5,6.045,6.045,0,0,1-1-.986,5.362,5.362,0,0,1-1.47-2.632.326.326,0,0,1,.084-.322.352.352,0,0,1,.214-.043l.637.012a.587.587,0,0,0,.454-.122.553.553,0,0,0,.1-.419l-.049-1.848a.266.266,0,0,1,.042-.187.246.246,0,0,1,.147-.063,10.369,10.369,0,0,0,1.062-.1c.327-.09.838-.465,1.08-.08A3.65,3.65,0,0,1,556.327,563.877Z" transform="translate(-506.791 -521.725)"/><circle class="j" cx="2.434" cy="2.434" r="2.434" transform="translate(45.498 37.164)"/><path class="k" d="M549.9,597.152a2.252,2.252,0,0,1-.07.294,6.905,6.905,0,0,1-.268.661c-.039.09-.075.179-.106.271-.024.072-.045.146-.064.219s-.04.174-.055.262c-.023.13-.039.261-.053.393h-6.352a3.96,3.96,0,0,0-.036-.964,6.346,6.346,0,0,0-.392-1.278,23.336,23.336,0,0,1-1.106-3.177v0a6.31,6.31,0,0,1-.154-2.148c0-.042.011-.084.017-.127a3.252,3.252,0,0,1,.061-.323,1.782,1.782,0,0,1,.4-.82.986.986,0,0,1,1.136-.262,1.151,1.151,0,0,1,.472.56c.07.147.13.3.192.452a4.611,4.611,0,0,0,.962,1.437,3.217,3.217,0,0,0,.245.232c.085.074.158.136.241.2a1.79,1.79,0,0,0,.944.478c.2.006.411,0,.622,0,.184,0,.37-.008.554,0a1.114,1.114,0,0,0,1.028-.448,1.375,1.375,0,0,0,.084-.791q-.029-.314-.059-.629v-.033c-.013-.152-.028-.3-.042-.453h0c-.007-.073-.013-.147-.021-.22h0l-.015-.163q.1-.012.211-.02a1.578,1.578,0,0,1,.915.136,1.216,1.216,0,0,1,.521.685,2.75,2.75,0,0,1,.131.628c.094.951-.058,1.911-.006,2.864A9.43,9.43,0,0,1,549.9,597.152Z" transform="translate(-496.552 -547.13)"/><path class="j" d="M640.593,674.334h-1.922c-.016-.218-.028-.436-.036-.654-.007-.151-.012-.3-.014-.453q-.013-.61.01-1.217a2.743,2.743,0,0,0,1.236.353,2.366,2.366,0,0,1,.419.665,3.235,3.235,0,0,1,.143.411.009.009,0,0,1,0,.006A5.489,5.489,0,0,1,640.593,674.334Z" transform="translate(-585.792 -622.211)"/><path class="k" d="M636.052,614.239a8.939,8.939,0,0,0-2.154.285,4.664,4.664,0,0,1,0-1.4l.311-3.2c.023-.237-.021-2.414.438-2.029a7.383,7.383,0,0,1,.435,1.619c.08.309.143.622.2.935.115.644.193,1.292.3,1.937C635.617,612.57,635.886,614.241,636.052,614.239Z" transform="translate(-581.42 -563.425)"/><path class="b" d="M527.129,503.878a.419.419,0,0,0-.05-.219.364.364,0,0,0-.26-.137c-.351-.054-.737.084-1.054-.074-.168-.084-.294-.251-.462-.344a1.161,1.161,0,0,0-1.245.29,3.635,3.635,0,0,0-1.167,1.778c-.156.538-.219,1.167-.665,1.508a2.449,2.449,0,0,0-.557.406,1.039,1.039,0,0,0-.148.5,3.3,3.3,0,0,0,.023,1.225c.084.3.239.564.335.855a2.269,2.269,0,0,1-.618,2.361.736.736,0,0,0,.545.095.467.467,0,0,1-.079.24c.57-.018,1.065-.573,1.622-.452.426.092.663.531.98.83a1.473,1.473,0,0,0,1.558.318,1.128,1.128,0,0,0,.608-1.394c-.251-.587-1.013-.822-1.279-1.4a4.47,4.47,0,0,1-.1-1.471,6.936,6.936,0,0,0-.335-1.228,1.516,1.516,0,0,1,.084-1.235,2.051,2.051,0,0,1,1.147-.67C526.98,505.346,527.166,504.855,527.129,503.878Z" transform="translate(-478.269 -467.375)"/><path class="j" d="M560.132,575.637a1.864,1.864,0,0,0,.016-1.026c-.228-.6-.973-.794-1.488-1.183a2.011,2.011,0,0,1-.662-.882c-.094-.245-.106-.587.124-.711a.56.56,0,0,1,.287-.05,3.608,3.608,0,0,1,2.154.971,2.942,2.942,0,0,1,.876,1.077,3.519,3.519,0,0,1,.2.968l.126,1.089a17.078,17.078,0,0,1,.145,1.883,8.31,8.31,0,0,1-.068,1.08,1.621,1.621,0,0,1-.229.725,1.586,1.586,0,0,1-1.291.488,2.234,2.234,0,0,1-.539-.034,1.292,1.292,0,0,1-.8-1.97c.251-.292.639-.3.784-.7A12.353,12.353,0,0,0,560.132,575.637Z" transform="translate(-511.871 -530.382)"/><path class="k" d="M542.775,601.4l.626,1.023a.468.468,0,0,1,.076.177c.018.133-.084.251-.161.359a3.438,3.438,0,0,0-.24,2.65,4.81,4.81,0,0,1-3.307-3.894c-.079-.535-.206-1.417.269-1.766C541.184,599.111,542.238,600.524,542.775,601.4Z" transform="translate(-495.158 -555.955)"/><path class="b" d="M600.549,572.172a2.742,2.742,0,0,1-.732-.106c-.4-.183-.49-.7-.53-1.137,0-.04-.006-.084-.008-.131a3.644,3.644,0,0,1,.463-.4,2.277,2.277,0,0,1,.474-.209l.442-.156a2.535,2.535,0,0,1,.1.36c.049.293.008.6.084.888a2.309,2.309,0,0,0,.374.715l.652.953c-.118-.028-.235-.06-.352-.093A1.479,1.479,0,0,0,600.549,572.172Z" transform="translate(-549.752 -528.776)"/><path class="l" d="M93.67,783.087a3.4,3.4,0,0,0,1.208-.228c.28-.2,1.424-.437,1.5-.117s1.4,1.592.348,1.6A8.9,8.9,0,0,1,94.008,784C93.728,783.831,93.67,783.087,93.67,783.087Z" transform="translate(-86.509 -723.521)"/><path class="c" d="M96.741,789.684a8.94,8.94,0,0,1-2.714-.335c-.213-.13-.3-.594-.326-.809H93.67s.059.749.335.922a8.859,8.859,0,0,0,2.715.335c.3,0,.406-.11.4-.269C97.081,789.622,96.966,789.681,96.741,789.684Z" transform="translate(-86.509 -728.977)"/><path class="l" d="M1002.94,760.239a6.051,6.051,0,0,0,2.148-.406c.5-.354,2.54-.778,2.664-.21s2.481,2.827.617,2.841a15.822,15.822,0,0,1-4.828-.592C1003.044,761.57,1002.94,760.239,1002.94,760.239Z" transform="translate(-919.587 -702.229)"/><path class="c" d="M1008.4,772.021a15.8,15.8,0,0,1-4.828-.592c-.378-.23-.529-1.057-.58-1.439h-.055s.1,1.332.6,1.634a15.8,15.8,0,0,0,4.828.592c.539,0,.724-.2.714-.479C1009.008,771.911,1008.8,772.019,1008.4,772.021Z" transform="translate(-919.587 -711.981)"/></g></svg>